<svg xmlns="http://www.w3.org/2000/svg" xmlns:xlink="http://www.w3.org/1999/xlink" width="1040" height="667.88"><rect width="1040" height="667.88" rx="5" ry="5" class="a"/><svg y="0%" x="0%"><circle cx="20" cy="20" r="6" fill="#ff5f58"/><circle cx="40" cy="20" r="6" fill="#ffbd2e"/><circle cx="60" cy="20" r="6" fill="#18c132"/></svg><svg height="607.88" viewBox="0 0 100 60.788" width="1000" x="15" xmlns="http://www.w3.org/2000/svg" xmlns:xlink="http://www.w3.org/1999/xlink" y="50"><style>@keyframes k{0%{transform:translateX(0)}.5%{transform:translateX(-200px)}.8%{transform:translateX(-300px)}1.2%{transform:translateX(-400px)}1.5%{transform:translateX(-500px)}1.9%{transform:translateX(-600px)}2.2%{transform:translateX(-700px)}2.5%{transform:translateX(-800px)}2.9%{transform:translateX(-900px)}3.2%{transform:translateX(-1000px)}3.5%{transform:translateX(-1100px)}3.8%{transform:translateX(-1200px)}4.2%{transform:translateX(-1300px)}4.6%{transform:translateX(-1400px)}5%{transform:translateX(-1500px)}5.3%{transform:translateX(-1600px)}5.7%{transform:translateX(-1700px)}6%{transform:translateX(-1800px)}6.4%{transform:translateX(-1900px)}6.7%{transform:translateX(-2000px)}7.1%{transform:translateX(-2100px)}7.4%{transform:translateX(-2200px)}7.8%{transform:translateX(-2300px)}8.1%{transform:translateX(-2400px)}24.1%{transform:translateX(-2500px)}24.3%{transform:translateX(-2600px)}31.4%{transform:translateX(-2700px)}31.8%{transform:translateX(-2800px)}32.1%{transform:translateX(-2900px)}32.4%{transform:translateX(-3000px)}32.7%{transform:translateX(-3100px)}33.1%{transform:translateX(-3200px)}33.4%{transform:translateX(-3300px)}33.8%{transform:translateX(-3400px)}34.1%{transform:translateX(-3500px)}34.4%{transform:translateX(-3600px)}34.8%{transform:translateX(-3700px)}35.1%{transform:translateX(-3800px)}35.5%{transform:translateX(-3900px)}35.8%{transform:translateX(-4000px)}36.1%{transform:translateX(-4100px)}36.5%{transform:translateX(-4200px)}36.8%{transform:translateX(-4300px)}37.2%{transform:translateX(-4400px)}37.5%{transform:translateX(-4500px)}37.8%{transform:translateX(-4600px)}38.2%{transform:translateX(-4700px)}38.6%{transform:translateX(-4800px)}38.9%{transform:translateX(-4900px)}39.3%{transform:translateX(-5000px)}39.6%{transform:translateX(-5100px)}57.5%{transform:translateX(-5200px)}58.9%{transform:translateX(-5300px)}66.1%{transform:translateX(-5400px)}66.5%{transform:translateX(-5500px)}66.8%{transform:translateX(-5600px)}67.1%{transform:translateX(-5700px)}67.4%{transform:translateX(-5800px)}67.8%{transform:translateX(-5900px)}68.1%{transform:translateX(-6000px)}68.5%{transform:translateX(-6100px)}68.8%{transform:translateX(-6200px)}69.2%{transform:translateX(-6300px)}69.5%{transform:translateX(-6400px)}69.9%{transform:translateX(-6500px)}70.2%{transform:translateX(-6600px)}70.5%{transform:translateX(-6700px)}70.8%{transform:translateX(-6800px)}71.2%{transform:translateX(-6900px)}71.5%{transform:translateX(-7000px)}71.8%{transform:translateX(-7100px)}72.2%{transform:translateX(-7200px)}72.5%{transform:translateX(-7300px)}72.8%{transform:translateX(-7400px)}73.1%{transform:translateX(-7500px)}73.5%{transform:translateX(-7600px)}73.8%{transform:translateX(-7700px)}74.1%{transform:translateX(-7800px)}74.5%{transform:translateX(-7900px)}74.8%{transform:translateX(-8000px)}75.2%{transform:translateX(-8100px)}75.5%{transform:translateX(-8200px)}75.9%{transform:translateX(-8300px)}to{transform:translateX(-8400px)}}.a{fill:rgb(255,255,255,237)}.f,.g,.h{white-space:pre}.f{fill:#6caa71;font-weight:700}.g,.h{fill:#2d3840}.h{fill:#5685a8}</style><g font-family="Monaco,Consolas,Menlo,'Bitstream Vera Sans Mono','Powerline Symbols',monospace" font-size="1.67"><defs><symbol id="1"><text y="1.67" class="f">$</text><text x="2.004" y="1.67" class="g">p</text></symbol><symbol id="2"><text y="1.67" class="f">$</text><text x="2.004" y="1.67" class="g">po</text></symbol><symbol id="3"><text y="1.67" class="f">$</text><text x="2.004" y="1.67" class="g">por</text></symbol><symbol id="4"><text y="1.67" class="f">$</text><text x="2.004" y="1.67" class="g">port</text></symbol><symbol id="5"><text y="1.67" class="f">$</text><text x="2.004" y="1.67" class="g">porto</text></symbol><symbol id="6"><text y="1.67" class="f">$</text><text x="2.004" y="1.67" class="g">portos</text></symbol><symbol id="7"><text y="1.67" class="f">$</text><text x="2.004" y="1.67" class="g">portose</text></symbol><symbol id="8"><text y="1.67" class="f">$</text><text x="2.004" y="1.67" class="g">portoser</text></symbol><symbol id="9"><text y="1.67" class="f">$</text><text x="2.004" y="1.67" class="g">portoser</text><text x="11.022" y="1.67" class="g">l</text></symbol><symbol id="10"><text y="1.67" class="f">$</text><text x="2.004" y="1.67" class="g">portoser</text><text x="11.022" y="1.67" class="g">le</text></symbol><symbol id="11"><text y="1.67" class="f">$</text><text x="2.004" y="1.67" class="g">portoser</text><text x="11.022" y="1.67" class="g">lea</text></symbol><symbol id="12"><text y="1.67" class="f">$</text><text x="2.004" y="1.67" class="g">portoser</text><text x="11.022" y="1.67" class="g">lear</text></symbol><symbol id="13"><text y="1.67" class="f">$</text><text x="2.004" y="1.67" class="g">portoser</text><text x="11.022" y="1.67" class="g">learn</text></symbol><symbol id="14"><text y="1.67" class="f">$</text><text x="2.004" y="1.67" class="g">portoser</text><text x="11.022" y="1.67" class="g">learn</text><text x="17.034" y="1.67" class="g">summary</text></symbol><symbol id="15"><text y="1.67" class="h">📝</text><text x="3.006" y="1.67" class="h">KNOWLEDGE</text><text x="13.026" y="1.67" class="h">BASE</text><text x="18.036" y="1.67" class="h">SUMMARY</text></symbol><symbol id="16"><text x="2.004" y="1.67" class="g">Total</text><text x="8.016" y="1.67" class="g">Problems</text><text x="17.034" y="1.67" class="g">Encountered:</text><text x="30.06" y="1.67" class="g">153</text></symbol><symbol id="17"><text x="2.004" y="1.67" class="g">Unique</text><text x="9.018" y="1.67" class="g">Problem</text><text x="17.034" y="1.67" class="g">Types:</text><text x="24.048" y="1.67" class="g">8</text></symbol><symbol id="18"><text x="2.004" y="1.67" class="g">Playbooks</text><text x="12.024" y="1.67" class="g">Generated:</text><text x="23.046" y="1.67" class="g">8</text></symbol><symbol id="19"><text x="2.004" y="1.67" class="g">Playbooks</text><text x="12.024" y="1.67" class="g">available</text><text x="22.044" y="1.67" class="g">at:</text><text x="26.052" y="1.67" class="g">/root/.portoser/knowledge/playbooks</text></symbol><symbol id="20"><text y="1.67" class="f">$</text><text x="2.004" y="1.67" class="g">portoser</text><text x="11.022" y="1.67" class="g">learn</text><text x="17.034" y="1.67" class="g">playbooks</text></symbol><symbol id="21"><text y="1.67" class="g">Available</text><text x="10.02" y="1.67" class="g">Playbooks:</text></symbol><symbol id="22"><text y="1.67" class="g">====================</text></symbol><symbol id="23"><text y="1.67" class="g">config-syntax</text></symbol><symbol id="24"><text y="1.67" class="g">disk-full</text></symbol><symbol id="25"><text y="1.67" class="g">dns-resolution</text></symbol><symbol id="26"><text y="1.67" class="g">image-pull-fail</text></symbol><symbol id="27"><text y="1.67" class="g">oom-kill</text></symbol><symbol id="28"><text y="1.67" class="g">permission-denied-volume</text></symbol><symbol id="29"><text y="1.67" class="g">rollback-procedure</text></symbol><symbol id="30"><text y="1.67" class="g">tls-handshake</text></symbol><symbol id="31"><text y="1.67" class="f">$</text><text x="2.004" y="1.67" class="g">portoser</text><text x="11.022" y="1.67" class="g">learn</text><text x="17.034" y="1.67" class="g">insights</text></symbol><symbol id="32"><text y="1.67" class="f">$</text><text x="2.004" y="1.67" class="g">portoser</text><text x="11.022" y="1.67" class="g">learn</text><text x="17.034" y="1.67" class="g">insights</text><text x="26.052" y="1.67" class="g">gitea</text></symbol><symbol id="a"><path fill="transparent" d="M0 0h100v29H0z"/></symbol><symbol id="b"><path fill="#7f7f7f" d="M0 0h1.102v2.171H0z"/></symbol></defs><path class="a" d="M0 0h100v60.788H0z"/><g style="animation-duration:9.235523s;animation-iteration-count:infinite;animation-name:k;animation-timing-function:steps(1,end)"><svg width="8500"><svg><use xlink:href="#a"/><use xlink:href="#b" x="-.004"/></svg><svg x="100"><use xlink:href="#a"/><use xlink:href="#b" x="-.004"/></svg><svg x="200"><use xlink:href="#a"/><use xlink:href="#b" x="2.996"/><use xlink:href="#1"/></svg><svg x="300"><use xlink:href="#a"/><use xlink:href="#b" x="3.996"/><use xlink:href="#2"/></svg><svg x="400"><use xlink:href="#a"/><use xlink:href="#b" x="4.996"/><use xlink:href="#3"/></svg><svg x="500"><use xlink:href="#a"/><use xlink:href="#b" x="5.996"/><use xlink:href="#4"/></svg><svg x="600"><use xlink:href="#a"/><use xlink:href="#b" x="6.996"/><use xlink:href="#5"/></svg><svg x="700"><use xlink:href="#a"/><use xlink:href="#b" x="7.996"/><use xlink:href="#6"/></svg><svg x="800"><use xlink:href="#a"/><use xlink:href="#b" x="8.996"/><use xlink:href="#7"/></svg><svg x="900"><use xlink:href="#a"/><use xlink:href="#b" x="9.996"/><use xlink:href="#8"/></svg><svg x="1000"><use xlink:href="#a"/><use xlink:href="#b" x="10.996"/><use xlink:href="#8"/></svg><svg x="1100"><use xlink:href="#a"/><use xlink:href="#b" x="11.996"/><use xlink:href="#9"/></svg><svg x="1200"><use xlink:href="#a"/><use xlink:href="#b" x="12.996"/><use xlink:href="#10"/></svg><svg x="1300"><use xlink:href="#a"/><use xlink:href="#b" x="13.996"/><use xlink:href="#11"/></svg><svg x="1400"><use xlink:href="#a"/><use xlink:href="#b" x="14.996"/><use xlink:href="#12"/></svg><svg x="1500"><use xlink:href="#a"/><use xlink:href="#b" x="15.996"/><use xlink:href="#13"/></svg><svg x="1600"><use xlink:href="#a"/><use xlink:href="#b" x="16.996"/><use xlink:href="#13"/></svg><svg x="1700"><use xlink:href="#a"/><use xlink:href="#b" x="17.996"/><text y="1.67" class="f">$</text><text x="2.004" y="1.67" class="g">portoser</text><text x="11.022" y="1.67" class="g">learn</text><text x="17.034" y="1.67" class="g">s</text></svg><svg x="1800"><use xlink:href="#a"/><use xlink:href="#b" x="18.996"/><text y="1.67" class="f">$</text><text x="2.004" y="1.67" class="g">portoser</text><text x="11.022" y="1.67" class="g">learn</text><text x="17.034" y="1.67" class="g">su</text></svg><svg x="1900"><use xlink:href="#a"/><use xlink:href="#b" x="19.996"/><text y="1.67" class="f">$</text><text x="2.004" y="1.67" class="g">portoser</text><text x="11.022" y="1.67" class="g">learn</text><text x="17.034" y="1.67" class="g">sum</text></svg><svg x="2000"><use xlink:href="#a"/><use xlink:href="#b" x="20.996"/><text y="1.67" class="f">$</text><text x="2.004" y="1.67" class="g">portoser</text><text x="11.022" y="1.67" class="g">learn</text><text x="17.034" y="1.67" class="g">summ</text></svg><svg x="2100"><use xlink:href="#a"/><use xlink:href="#b" x="21.996"/><text y="1.67" class="f">$</text><text x="2.004" y="1.67" class="g">portoser</text><text x="11.022" y="1.67" class="g">learn</text><text x="17.034" y="1.67" class="g">summa</text></svg><svg x="2200"><use xlink:href="#a"/><use xlink:href="#b" x="22.996"/><text y="1.67" class="f">$</text><text x="2.004" y="1.67" class="g">portoser</text><text x="11.022" y="1.67" class="g">learn</text><text x="17.034" y="1.67" class="g">summar</text></svg><svg x="2300"><use xlink:href="#a"/><use xlink:href="#b" x="23.996"/><use xlink:href="#14"/></svg><svg x="2400"><use xlink:href="#a"/><use xlink:href="#b" x="-.004" y="2.146"/><use xlink:href="#14"/></svg><svg x="2500"><use xlink:href="#a"/><use xlink:href="#b" x="-.004" y="8.659"/><use xlink:href="#14"/><use xlink:href="#15" y="6.513"/></svg><svg x="2600"><use xlink:href="#a"/><use xlink:href="#b" x="-.004" y="21.685"/><use xlink:href="#14"/><use xlink:href="#15" y="6.513"/><use xlink:href="#16" y="8.684"/><use xlink:href="#17" y="10.855"/><use xlink:href="#18" y="13.026"/><use xlink:href="#19" y="17.368"/></svg><svg x="2700"><use xlink:href="#a"/><use xlink:href="#b" x="2.996" y="21.685"/><use xlink:href="#14"/><use xlink:href="#15" y="6.513"/><use xlink:href="#16" y="8.684"/><use xlink:href="#17" y="10.855"/><use xlink:href="#18" y="13.026"/><use xlink:href="#19" y="17.368"/><use xlink:href="#1" y="21.71"/></svg><svg x="2800"><use xlink:href="#a"/><use xlink:href="#b" x="3.996" y="21.685"/><use xlink:href="#14"/><use xlink:href="#15" y="6.513"/><use xlink:href="#16" y="8.684"/><use xlink:href="#17" y="10.855"/><use xlink:href="#18" y="13.026"/><use xlink:href="#19" y="17.368"/><use xlink:href="#2" y="21.71"/></svg><svg x="2900"><use xlink:href="#a"/><use xlink:href="#b" x="4.996" y="21.685"/><use xlink:href="#14"/><use xlink:href="#15" y="6.513"/><use xlink:href="#16" y="8.684"/><use xlink:href="#17" y="10.855"/><use xlink:href="#18" y="13.026"/><use xlink:href="#19" y="17.368"/><use xlink:href="#3" y="21.71"/></svg><svg x="3000"><use xlink:href="#a"/><use xlink:href="#b" x="5.996" y="21.685"/><use xlink:href="#14"/><use xlink:href="#15" y="6.513"/><use xlink:href="#16" y="8.684"/><use xlink:href="#17" y="10.855"/><use xlink:href="#18" y="13.026"/><use xlink:href="#19" y="17.368"/><use xlink:href="#4" y="21.71"/></svg><svg x="3100"><use xlink:href="#a"/><use xlink:href="#b" x="6.996" y="21.685"/><use xlink:href="#14"/><use xlink:href="#15" y="6.513"/><use xlink:href="#16" y="8.684"/><use xlink:href="#17" y="10.855"/><use xlink:href="#18" y="13.026"/><use xlink:href="#19" y="17.368"/><use xlink:href="#5" y="21.71"/></svg><svg x="3200"><use xlink:href="#a"/><use xlink:href="#b" x="7.996" y="21.685"/><use xlink:href="#14"/><use xlink:href="#15" y="6.513"/><use xlink:href="#16" y="8.684"/><use xlink:href="#17" y="10.855"/><use xlink:href="#18" y="13.026"/><use xlink:href="#19" y="17.368"/><use xlink:href="#6" y="21.71"/></svg><svg x="3300"><use xlink:href="#a"/><use xlink:href="#b" x="8.996" y="21.685"/><use xlink:href="#14"/><use xlink:href="#15" y="6.513"/><use xlink:href="#16" y="8.684"/><use xlink:href="#17" y="10.855"/><use xlink:href="#18" y="13.026"/><use xlink:href="#19" y="17.368"/><use xlink:href="#7" y="21.71"/></svg><svg x="3400"><use xlink:href="#a"/><use xlink:href="#b" x="9.996" y="21.685"/><use xlink:href="#14"/><use xlink:href="#15" y="6.513"/><use xlink:href="#16" y="8.684"/><use xlink:href="#17" y="10.855"/><use xlink:href="#18" y="13.026"/><use xlink:href="#19" y="17.368"/><use xlink:href="#8" y="21.71"/></svg><svg x="3500"><use xlink:href="#a"/><use xlink:href="#b" x="10.996" y="21.685"/><use xlink:href="#14"/><use xlink:href="#15" y="6.513"/><use xlink:href="#16" y="8.684"/><use xlink:href="#17" y="10.855"/><use xlink:href="#18" y="13.026"/><use xlink:href="#19" y="17.368"/><use xlink:href="#8" y="21.71"/></svg><svg x="3600"><use xlink:href="#a"/><use xlink:href="#b" x="11.996" y="21.685"/><use xlink:href="#14"/><use xlink:href="#15" y="6.513"/><use xlink:href="#16" y="8.684"/><use xlink:href="#17" y="10.855"/><use xlink:href="#18" y="13.026"/><use xlink:href="#19" y="17.368"/><use xlink:href="#9" y="21.71"/></svg><svg x="3700"><use xlink:href="#a"/><use xlink:href="#b" x="12.996" y="21.685"/><use xlink:href="#14"/><use xlink:href="#15" y="6.513"/><use xlink:href="#16" y="8.684"/><use xlink:href="#17" y="10.855"/><use xlink:href="#18" y="13.026"/><use xlink:href="#19" y="17.368"/><use xlink:href="#10" y="21.71"/></svg><svg x="3800"><use xlink:href="#a"/><use xlink:href="#b" x="13.996" y="21.685"/><use xlink:href="#14"/><use xlink:href="#15" y="6.513"/><use xlink:href="#16" y="8.684"/><use xlink:href="#17" y="10.855"/><use xlink:href="#18" y="13.026"/><use xlink:href="#19" y="17.368"/><use xlink:href="#11" y="21.71"/></svg><svg x="3900"><use xlink:href="#a"/><use xlink:href="#b" x="14.996" y="21.685"/><use xlink:href="#14"/><use xlink:href="#15" y="6.513"/><use xlink:href="#16" y="8.684"/><use xlink:href="#17" y="10.855"/><use xlink:href="#18" y="13.026"/><use xlink:href="#19" y="17.368"/><use xlink:href="#12" y="21.71"/></svg><svg x="4000"><use xlink:href="#a"/><use xlink:href="#b" x="15.996" y="21.685"/><use xlink:href="#14"/><use xlink:href="#15" y="6.513"/><use xlink:href="#16" y="8.684"/><use xlink:href="#17" y="10.855"/><use xlink:href="#18" y="13.026"/><use xlink:href="#19" y="17.368"/><use xlink:href="#13" y="21.71"/></svg><svg x="4100"><use xlink:href="#a"/><use xlink:href="#b" x="16.996" y="21.685"/><use xlink:href="#14"/><use xlink:href="#15" y="6.513"/><use xlink:href="#16" y="8.684"/><use xlink:href="#17" y="10.855"/><use xlink:href="#18" y="13.026"/><use xlink:href="#19" y="17.368"/><use xlink:href="#13" y="21.71"/></svg><svg x="4200"><use xlink:href="#a"/><use xlink:href="#b" x="17.996" y="21.685"/><use xlink:href="#14"/><use xlink:href="#15" y="6.513"/><use xlink:href="#16" y="8.684"/><use xlink:href="#17" y="10.855"/><use xlink:href="#18" y="13.026"/><use xlink:href="#19" y="17.368"/><text y="23.38" class="f">$</text><text x="2.004" y="23.38" class="g">portoser</text><text x="11.022" y="23.38" class="g">learn</text><text x="17.034" y="23.38" class="g">p</text></svg><svg x="4300"><use xlink:href="#a"/><use xlink:href="#b" x="18.996" y="21.685"/><use xlink:href="#14"/><use xlink:href="#15" y="6.513"/><use xlink:href="#16" y="8.684"/><use xlink:href="#17" y="10.855"/><use xlink:href="#18" y="13.026"/><use xlink:href="#19" y="17.368"/><text y="23.38" class="f">$</text><text x="2.004" y="23.38" class="g">portoser</text><text x="11.022" y="23.38" class="g">learn</text><text x="17.034" y="23.38" class="g">pl</text></svg><svg x="4400"><use xlink:href="#a"/><use xlink:href="#b" x="19.996" y="21.685"/><use xlink:href="#14"/><use xlink:href="#15" y="6.513"/><use xlink:href="#16" y="8.684"/><use xlink:href="#17" y="10.855"/><use xlink:href="#18" y="13.026"/><use xlink:href="#19" y="17.368"/><text y="23.38" class="f">$</text><text x="2.004" y="23.38" class="g">portoser</text><text x="11.022" y="23.38" class="g">learn</text><text x="17.034" y="23.38" class="g">pla</text></svg><svg x="4500"><use xlink:href="#a"/><use xlink:href="#b" x="20.996" y="21.685"/><use xlink:href="#14"/><use xlink:href="#15" y="6.513"/><use xlink:href="#16" y="8.684"/><use xlink:href="#17" y="10.855"/><use xlink:href="#18" y="13.026"/><use xlink:href="#19" y="17.368"/><text y="23.38" class="f">$</text><text x="2.004" y="23.38" class="g">portoser</text><text x="11.022" y="23.38" class="g">learn</text><text x="17.034" y="23.38" class="g">play</text></svg><svg x="4600"><use xlink:href="#a"/><use xlink:href="#b" x="21.996" y="21.685"/><use xlink:href="#14"/><use xlink:href="#15" y="6.513"/><use xlink:href="#16" y="8.684"/><use xlink:href="#17" y="10.855"/><use xlink:href="#18" y="13.026"/><use xlink:href="#19" y="17.368"/><text y="23.38" class="f">$</text><text x="2.004" y="23.38" class="g">portoser</text><text x="11.022" y="23.38" class="g">learn</text><text x="17.034" y="23.38" class="g">playb</text></svg><svg x="4700"><use xlink:href="#a"/><use xlink:href="#b" x="22.996" y="21.685"/><use xlink:href="#14"/><use xlink:href="#15" y="6.513"/><use xlink:href="#16" y="8.684"/><use xlink:href="#17" y="10.855"/><use xlink:href="#18" y="13.026"/><use xlink:href="#19" y="17.368"/><text y="23.38" class="f">$</text><text x="2.004" y="23.38" class="g">portoser</text><text x="11.022" y="23.38" class="g">learn</text><text x="17.034" y="23.38" class="g">playbo</text></svg><svg x="4800"><use xlink:href="#a"/><use xlink:href="#b" x="23.996" y="21.685"/><use xlink:href="#14"/><use xlink:href="#15" y="6.513"/><use xlink:href="#16" y="8.684"/><use xlink:href="#17" y="10.855"/><use xlink:href="#18" y="13.026"/><use xlink:href="#19" y="17.368"/><text y="23.38" class="f">$</text><text x="2.004" y="23.38" class="g">portoser</text><text x="11.022" y="23.38" class="g">learn</text><text x="17.034" y="23.38" class="g">playboo</text></svg><svg x="4900"><use xlink:href="#a"/><use xlink:href="#b" x="24.996" y="21.685"/><use xlink:href="#14"/><use xlink:href="#15" y="6.513"/><use xlink:href="#16" y="8.684"/><use xlink:href="#17" y="10.855"/><use xlink:href="#18" y="13.026"/><use xlink:href="#19" y="17.368"/><text y="23.38" class="f">$</text><text x="2.004" y="23.38" class="g">portoser</text><text x="11.022" y="23.38" class="g">learn</text><text x="17.034" y="23.38" class="g">playbook</text></svg><svg x="5000"><use xlink:href="#a"/><use xlink:href="#b" x="25.996" y="21.685"/><use xlink:href="#14"/><use xlink:href="#15" y="6.513"/><use xlink:href="#16" y="8.684"/><use xlink:href="#17" y="10.855"/><use xlink:href="#18" y="13.026"/><use xlink:href="#19" y="17.368"/><use xlink:href="#20" y="21.71"/></svg><svg x="5100"><use xlink:href="#a"/><use xlink:href="#b" x="-.004" y="23.856"/><use xlink:href="#14"/><use xlink:href="#15" y="6.513"/><use xlink:href="#16" y="8.684"/><use xlink:href="#17" y="10.855"/><use xlink:href="#18" y="13.026"/><use xlink:href="#19" y="17.368"/><use xlink:href="#20" y="21.71"/></svg><svg x="5200"><use xlink:href="#a"/><use xlink:href="#b" x="-.004" y="28.198"/><use xlink:href="#14"/><use xlink:href="#15" y="6.513"/><use xlink:href="#16" y="8.684"/><use xlink:href="#17" y="10.855"/><use xlink:href="#18" y="13.026"/><use xlink:href="#19" y="17.368"/><use xlink:href="#20" y="21.71"/><use xlink:href="#21" y="23.881"/><use xlink:href="#22" y="26.052"/></svg><svg x="5300"><use xlink:href="#a"/><use xlink:href="#b" x="-.004" y="45.566"/><use xlink:href="#14"/><use xlink:href="#15" y="6.513"/><use xlink:href="#16" y="8.684"/><use xlink:href="#17" y="10.855"/><use xlink:href="#18" y="13.026"/><use xlink:href="#19" y="17.368"/><use xlink:href="#20" y="21.71"/><use xlink:href="#21" y="23.881"/><use xlink:href="#22" y="26.052"/><use xlink:href="#23" y="28.223"/><use xlink:href="#24" y="30.394"/><use xlink:href="#25" y="32.565"/><use xlink:href="#26" y="34.736"/><use xlink:href="#27" y="36.907"/><use xlink:href="#28" y="39.078"/><use xlink:href="#29" y="41.249"/><use xlink:href="#30" y="43.42"/></svg><svg x="5400"><use xlink:href="#a"/><use xlink:href="#b" x="2.996" y="45.566"/><use xlink:href="#14"/><use xlink:href="#15" y="6.513"/><use xlink:href="#16" y="8.684"/><use xlink:href="#17" y="10.855"/><use xlink:href="#18" y="13.026"/><use xlink:href="#19" y="17.368"/><use xlink:href="#20" y="21.71"/><use xlink:href="#21" y="23.881"/><use xlink:href="#22" y="26.052"/><use xlink:href="#23" y="28.223"/><use xlink:href="#24" y="30.394"/><use xlink:href="#25" y="32.565"/><use xlink:href="#26" y="34.736"/><use xlink:href="#27" y="36.907"/><use xlink:href="#28" y="39.078"/><use xlink:href="#29" y="41.249"/><use xlink:href="#30" y="43.42"/><use xlink:href="#1" y="45.591"/></svg><svg x="5500"><use xlink:href="#a"/><use xlink:href="#b" x="3.996" y="45.566"/><use xlink:href="#14"/><use xlink:href="#15" y="6.513"/><use xlink:href="#16" y="8.684"/><use xlink:href="#17" y="10.855"/><use xlink:href="#18" y="13.026"/><use xlink:href="#19" y="17.368"/><use xlink:href="#20" y="21.71"/><use xlink:href="#21" y="23.881"/><use xlink:href="#22" y="26.052"/><use xlink:href="#23" y="28.223"/><use xlink:href="#24" y="30.394"/><use xlink:href="#25" y="32.565"/><use xlink:href="#26" y="34.736"/><use xlink:href="#27" y="36.907"/><use xlink:href="#28" y="39.078"/><use xlink:href="#29" y="41.249"/><use xlink:href="#30" y="43.42"/><use xlink:href="#2" y="45.591"/></svg><svg x="5600"><use xlink:href="#a"/><use xlink:href="#b" x="4.996" y="45.566"/><use xlink:href="#14"/><use xlink:href="#15" y="6.513"/><use xlink:href="#16" y="8.684"/><use xlink:href="#17" y="10.855"/><use xlink:href="#18" y="13.026"/><use xlink:href="#19" y="17.368"/><use xlink:href="#20" y="21.71"/><use xlink:href="#21" y="23.881"/><use xlink:href="#22" y="26.052"/><use xlink:href="#23" y="28.223"/><use xlink:href="#24" y="30.394"/><use xlink:href="#25" y="32.565"/><use xlink:href="#26" y="34.736"/><use xlink:href="#27" y="36.907"/><use xlink:href="#28" y="39.078"/><use xlink:href="#29" y="41.249"/><use xlink:href="#30" y="43.42"/><use xlink:href="#3" y="45.591"/></svg><svg x="5700"><use xlink:href="#a"/><use xlink:href="#b" x="5.996" y="45.566"/><use xlink:href="#14"/><use xlink:href="#15" y="6.513"/><use xlink:href="#16" y="8.684"/><use xlink:href="#17" y="10.855"/><use xlink:href="#18" y="13.026"/><use xlink:href="#19" y="17.368"/><use xlink:href="#20" y="21.71"/><use xlink:href="#21" y="23.881"/><use xlink:href="#22" y="26.052"/><use xlink:href="#23" y="28.223"/><use xlink:href="#24" y="30.394"/><use xlink:href="#25" y="32.565"/><use xlink:href="#26" y="34.736"/><use xlink:href="#27" y="36.907"/><use xlink:href="#28" y="39.078"/><use xlink:href="#29" y="41.249"/><use xlink:href="#30" y="43.42"/><use xlink:href="#4" y="45.591"/></svg><svg x="5800"><use xlink:href="#a"/><use xlink:href="#b" x="6.996" y="45.566"/><use xlink:href="#14"/><use xlink:href="#15" y="6.513"/><use xlink:href="#16" y="8.684"/><use xlink:href="#17" y="10.855"/><use xlink:href="#18" y="13.026"/><use xlink:href="#19" y="17.368"/><use xlink:href="#20" y="21.71"/><use xlink:href="#21" y="23.881"/><use xlink:href="#22" y="26.052"/><use xlink:href="#23" y="28.223"/><use xlink:href="#24" y="30.394"/><use xlink:href="#25" y="32.565"/><use xlink:href="#26" y="34.736"/><use xlink:href="#27" y="36.907"/><use xlink:href="#28" y="39.078"/><use xlink:href="#29" y="41.249"/><use xlink:href="#30" y="43.42"/><use xlink:href="#5" y="45.591"/></svg><svg x="5900"><use xlink:href="#a"/><use xlink:href="#b" x="7.996" y="45.566"/><use xlink:href="#14"/><use xlink:href="#15" y="6.513"/><use xlink:href="#16" y="8.684"/><use xlink:href="#17" y="10.855"/><use xlink:href="#18" y="13.026"/><use xlink:href="#19" y="17.368"/><use xlink:href="#20" y="21.71"/><use xlink:href="#21" y="23.881"/><use xlink:href="#22" y="26.052"/><use xlink:href="#23" y="28.223"/><use xlink:href="#24" y="30.394"/><use xlink:href="#25" y="32.565"/><use xlink:href="#26" y="34.736"/><use xlink:href="#27" y="36.907"/><use xlink:href="#28" y="39.078"/><use xlink:href="#29" y="41.249"/><use xlink:href="#30" y="43.42"/><use xlink:href="#6" y="45.591"/></svg><svg x="6000"><use xlink:href="#a"/><use xlink:href="#b" x="8.996" y="45.566"/><use xlink:href="#14"/><use xlink:href="#15" y="6.513"/><use xlink:href="#16" y="8.684"/><use xlink:href="#17" y="10.855"/><use xlink:href="#18" y="13.026"/><use xlink:href="#19" y="17.368"/><use xlink:href="#20" y="21.71"/><use xlink:href="#21" y="23.881"/><use xlink:href="#22" y="26.052"/><use xlink:href="#23" y="28.223"/><use xlink:href="#24" y="30.394"/><use xlink:href="#25" y="32.565"/><use xlink:href="#26" y="34.736"/><use xlink:href="#27" y="36.907"/><use xlink:href="#28" y="39.078"/><use xlink:href="#29" y="41.249"/><use xlink:href="#30" y="43.42"/><use xlink:href="#7" y="45.591"/></svg><svg x="6100"><use xlink:href="#a"/><use xlink:href="#b" x="9.996" y="45.566"/><use xlink:href="#14"/><use xlink:href="#15" y="6.513"/><use xlink:href="#16" y="8.684"/><use xlink:href="#17" y="10.855"/><use xlink:href="#18" y="13.026"/><use xlink:href="#19" y="17.368"/><use xlink:href="#20" y="21.71"/><use xlink:href="#21" y="23.881"/><use xlink:href="#22" y="26.052"/><use xlink:href="#23" y="28.223"/><use xlink:href="#24" y="30.394"/><use xlink:href="#25" y="32.565"/><use xlink:href="#26" y="34.736"/><use xlink:href="#27" y="36.907"/><use xlink:href="#28" y="39.078"/><use xlink:href="#29" y="41.249"/><use xlink:href="#30" y="43.42"/><use xlink:href="#8" y="45.591"/></svg><svg x="6200"><use xlink:href="#a"/><use xlink:href="#b" x="10.996" y="45.566"/><use xlink:href="#14"/><use xlink:href="#15" y="6.513"/><use xlink:href="#16" y="8.684"/><use xlink:href="#17" y="10.855"/><use xlink:href="#18" y="13.026"/><use xlink:href="#19" y="17.368"/><use xlink:href="#20" y="21.71"/><use xlink:href="#21" y="23.881"/><use xlink:href="#22" y="26.052"/><use xlink:href="#23" y="28.223"/><use xlink:href="#24" y="30.394"/><use xlink:href="#25" y="32.565"/><use xlink:href="#26" y="34.736"/><use xlink:href="#27" y="36.907"/><use xlink:href="#28" y="39.078"/><use xlink:href="#29" y="41.249"/><use xlink:href="#30" y="43.42"/><use xlink:href="#8" y="45.591"/></svg><svg x="6300"><use xlink:href="#a"/><use xlink:href="#b" x="11.996" y="45.566"/><use xlink:href="#14"/><use xlink:href="#15" y="6.513"/><use xlink:href="#16" y="8.684"/><use xlink:href="#17" y="10.855"/><use xlink:href="#18" y="13.026"/><use xlink:href="#19" y="17.368"/><use xlink:href="#20" y="21.71"/><use xlink:href="#21" y="23.881"/><use xlink:href="#22" y="26.052"/><use xlink:href="#23" y="28.223"/><use xlink:href="#24" y="30.394"/><use xlink:href="#25" y="32.565"/><use xlink:href="#26" y="34.736"/><use xlink:href="#27" y="36.907"/><use xlink:href="#28" y="39.078"/><use xlink:href="#29" y="41.249"/><use xlink:href="#30" y="43.42"/><use xlink:href="#9" y="45.591"/></svg><svg x="6400"><use xlink:href="#a"/><use xlink:href="#b" x="12.996" y="45.566"/><use xlink:href="#14"/><use xlink:href="#15" y="6.513"/><use xlink:href="#16" y="8.684"/><use xlink:href="#17" y="10.855"/><use xlink:href="#18" y="13.026"/><use xlink:href="#19" y="17.368"/><use xlink:href="#20" y="21.71"/><use xlink:href="#21" y="23.881"/><use xlink:href="#22" y="26.052"/><use xlink:href="#23" y="28.223"/><use xlink:href="#24" y="30.394"/><use xlink:href="#25" y="32.565"/><use xlink:href="#26" y="34.736"/><use xlink:href="#27" y="36.907"/><use xlink:href="#28" y="39.078"/><use xlink:href="#29" y="41.249"/><use xlink:href="#30" y="43.42"/><use xlink:href="#10" y="45.591"/></svg><svg x="6500"><use xlink:href="#a"/><use xlink:href="#b" x="13.996" y="45.566"/><use xlink:href="#14"/><use xlink:href="#15" y="6.513"/><use xlink:href="#16" y="8.684"/><use xlink:href="#17" y="10.855"/><use xlink:href="#18" y="13.026"/><use xlink:href="#19" y="17.368"/><use xlink:href="#20" y="21.71"/><use xlink:href="#21" y="23.881"/><use xlink:href="#22" y="26.052"/><use xlink:href="#23" y="28.223"/><use xlink:href="#24" y="30.394"/><use xlink:href="#25" y="32.565"/><use xlink:href="#26" y="34.736"/><use xlink:href="#27" y="36.907"/><use xlink:href="#28" y="39.078"/><use xlink:href="#29" y="41.249"/><use xlink:href="#30" y="43.42"/><use xlink:href="#11" y="45.591"/></svg><svg x="6600"><use xlink:href="#a"/><use xlink:href="#b" x="14.996" y="45.566"/><use xlink:href="#14"/><use xlink:href="#15" y="6.513"/><use xlink:href="#16" y="8.684"/><use xlink:href="#17" y="10.855"/><use xlink:href="#18" y="13.026"/><use xlink:href="#19" y="17.368"/><use xlink:href="#20" y="21.71"/><use xlink:href="#21" y="23.881"/><use xlink:href="#22" y="26.052"/><use xlink:href="#23" y="28.223"/><use xlink:href="#24" y="30.394"/><use xlink:href="#25" y="32.565"/><use xlink:href="#26" y="34.736"/><use xlink:href="#27" y="36.907"/><use xlink:href="#28" y="39.078"/><use xlink:href="#29" y="41.249"/><use xlink:href="#30" y="43.42"/><use xlink:href="#12" y="45.591"/></svg><svg x="6700"><use xlink:href="#a"/><use xlink:href="#b" x="15.996" y="45.566"/><use xlink:href="#14"/><use xlink:href="#15" y="6.513"/><use xlink:href="#16" y="8.684"/><use xlink:href="#17" y="10.855"/><use xlink:href="#18" y="13.026"/><use xlink:href="#19" y="17.368"/><use xlink:href="#20" y="21.71"/><use xlink:href="#21" y="23.881"/><use xlink:href="#22" y="26.052"/><use xlink:href="#23" y="28.223"/><use xlink:href="#24" y="30.394"/><use xlink:href="#25" y="32.565"/><use xlink:href="#26" y="34.736"/><use xlink:href="#27" y="36.907"/><use xlink:href="#28" y="39.078"/><use xlink:href="#29" y="41.249"/><use xlink:href="#30" y="43.42"/><use xlink:href="#13" y="45.591"/></svg><svg x="6800"><use xlink:href="#a"/><use xlink:href="#b" x="16.996" y="45.566"/><use xlink:href="#14"/><use xlink:href="#15" y="6.513"/><use xlink:href="#16" y="8.684"/><use xlink:href="#17" y="10.855"/><use xlink:href="#18" y="13.026"/><use xlink:href="#19" y="17.368"/><use xlink:href="#20" y="21.71"/><use xlink:href="#21" y="23.881"/><use xlink:href="#22" y="26.052"/><use xlink:href="#23" y="28.223"/><use xlink:href="#24" y="30.394"/><use xlink:href="#25" y="32.565"/><use xlink:href="#26" y="34.736"/><use xlink:href="#27" y="36.907"/><use xlink:href="#28" y="39.078"/><use xlink:href="#29" y="41.249"/><use xlink:href="#30" y="43.42"/><use xlink:href="#13" y="45.591"/></svg><svg x="6900"><use xlink:href="#a"/><use xlink:href="#b" x="17.996" y="45.566"/><use xlink:href="#14"/><use xlink:href="#15" y="6.513"/><use xlink:href="#16" y="8.684"/><use xlink:href="#17" y="10.855"/><use xlink:href="#18" y="13.026"/><use xlink:href="#19" y="17.368"/><use xlink:href="#20" y="21.71"/><use xlink:href="#21" y="23.881"/><use xlink:href="#22" y="26.052"/><use xlink:href="#23" y="28.223"/><use xlink:href="#24" y="30.394"/><use xlink:href="#25" y="32.565"/><use xlink:href="#26" y="34.736"/><use xlink:href="#27" y="36.907"/><use xlink:href="#28" y="39.078"/><use xlink:href="#29" y="41.249"/><use xlink:href="#30" y="43.42"/><text y="47.261" class="f">$</text><text x="2.004" y="47.261" class="g">portoser</text><text x="11.022" y="47.261" class="g">learn</text><text x="17.034" y="47.261" class="g">i</text></svg><svg x="7000"><use xlink:href="#a"/><use xlink:href="#b" x="18.996" y="45.566"/><use xlink:href="#14"/><use xlink:href="#15" y="6.513"/><use xlink:href="#16" y="8.684"/><use xlink:href="#17" y="10.855"/><use xlink:href="#18" y="13.026"/><use xlink:href="#19" y="17.368"/><use xlink:href="#20" y="21.71"/><use xlink:href="#21" y="23.881"/><use xlink:href="#22" y="26.052"/><use xlink:href="#23" y="28.223"/><use xlink:href="#24" y="30.394"/><use xlink:href="#25" y="32.565"/><use xlink:href="#26" y="34.736"/><use xlink:href="#27" y="36.907"/><use xlink:href="#28" y="39.078"/><use xlink:href="#29" y="41.249"/><use xlink:href="#30" y="43.42"/><text y="47.261" class="f">$</text><text x="2.004" y="47.261" class="g">portoser</text><text x="11.022" y="47.261" class="g">learn</text><text x="17.034" y="47.261" class="g">in</text></svg><svg x="7100"><use xlink:href="#a"/><use xlink:href="#b" x="19.996" y="45.566"/><use xlink:href="#14"/><use xlink:href="#15" y="6.513"/><use xlink:href="#16" y="8.684"/><use xlink:href="#17" y="10.855"/><use xlink:href="#18" y="13.026"/><use xlink:href="#19" y="17.368"/><use xlink:href="#20" y="21.71"/><use xlink:href="#21" y="23.881"/><use xlink:href="#22" y="26.052"/><use xlink:href="#23" y="28.223"/><use xlink:href="#24" y="30.394"/><use xlink:href="#25" y="32.565"/><use xlink:href="#26" y="34.736"/><use xlink:href="#27" y="36.907"/><use xlink:href="#28" y="39.078"/><use xlink:href="#29" y="41.249"/><use xlink:href="#30" y="43.42"/><text y="47.261" class="f">$</text><text x="2.004" y="47.261" class="g">portoser</text><text x="11.022" y="47.261" class="g">learn</text><text x="17.034" y="47.261" class="g">ins</text></svg><svg x="7200"><use xlink:href="#a"/><use xlink:href="#b" x="20.996" y="45.566"/><use xlink:href="#14"/><use xlink:href="#15" y="6.513"/><use xlink:href="#16" y="8.684"/><use xlink:href="#17" y="10.855"/><use xlink:href="#18" y="13.026"/><use xlink:href="#19" y="17.368"/><use xlink:href="#20" y="21.71"/><use xlink:href="#21" y="23.881"/><use xlink:href="#22" y="26.052"/><use xlink:href="#23" y="28.223"/><use xlink:href="#24" y="30.394"/><use xlink:href="#25" y="32.565"/><use xlink:href="#26" y="34.736"/><use xlink:href="#27" y="36.907"/><use xlink:href="#28" y="39.078"/><use xlink:href="#29" y="41.249"/><use xlink:href="#30" y="43.42"/><text y="47.261" class="f">$</text><text x="2.004" y="47.261" class="g">portoser</text><text x="11.022" y="47.261" class="g">learn</text><text x="17.034" y="47.261" class="g">insi</text></svg><svg x="7300"><use xlink:href="#a"/><use xlink:href="#b" x="21.996" y="45.566"/><use xlink:href="#14"/><use xlink:href="#15" y="6.513"/><use xlink:href="#16" y="8.684"/><use xlink:href="#17" y="10.855"/><use xlink:href="#18" y="13.026"/><use xlink:href="#19" y="17.368"/><use xlink:href="#20" y="21.71"/><use xlink:href="#21" y="23.881"/><use xlink:href="#22" y="26.052"/><use xlink:href="#23" y="28.223"/><use xlink:href="#24" y="30.394"/><use xlink:href="#25" y="32.565"/><use xlink:href="#26" y="34.736"/><use xlink:href="#27" y="36.907"/><use xlink:href="#28" y="39.078"/><use xlink:href="#29" y="41.249"/><use xlink:href="#30" y="43.42"/><text y="47.261" class="f">$</text><text x="2.004" y="47.261" class="g">portoser</text><text x="11.022" y="47.261" class="g">learn</text><text x="17.034" y="47.261" class="g">insig</text></svg><svg x="7400"><use xlink:href="#a"/><use xlink:href="#b" x="22.996" y="45.566"/><use xlink:href="#14"/><use xlink:href="#15" y="6.513"/><use xlink:href="#16" y="8.684"/><use xlink:href="#17" y="10.855"/><use xlink:href="#18" y="13.026"/><use xlink:href="#19" y="17.368"/><use xlink:href="#20" y="21.71"/><use xlink:href="#21" y="23.881"/><use xlink:href="#22" y="26.052"/><use xlink:href="#23" y="28.223"/><use xlink:href="#24" y="30.394"/><use xlink:href="#25" y="32.565"/><use xlink:href="#26" y="34.736"/><use xlink:href="#27" y="36.907"/><use xlink:href="#28" y="39.078"/><use xlink:href="#29" y="41.249"/><use xlink:href="#30" y="43.42"/><text y="47.261" class="f">$</text><text x="2.004" y="47.261" class="g">portoser</text><text x="11.022" y="47.261" class="g">learn</text><text x="17.034" y="47.261" class="g">insigh</text></svg><svg x="7500"><use xlink:href="#a"/><use xlink:href="#b" x="23.996" y="45.566"/><use xlink:href="#14"/><use xlink:href="#15" y="6.513"/><use xlink:href="#16" y="8.684"/><use xlink:href="#17" y="10.855"/><use xlink:href="#18" y="13.026"/><use xlink:href="#19" y="17.368"/><use xlink:href="#20" y="21.71"/><use xlink:href="#21" y="23.881"/><use xlink:href="#22" y="26.052"/><use xlink:href="#23" y="28.223"/><use xlink:href="#24" y="30.394"/><use xlink:href="#25" y="32.565"/><use xlink:href="#26" y="34.736"/><use xlink:href="#27" y="36.907"/><use xlink:href="#28" y="39.078"/><use xlink:href="#29" y="41.249"/><use xlink:href="#30" y="43.42"/><text y="47.261" class="f">$</text><text x="2.004" y="47.261" class="g">portoser</text><text x="11.022" y="47.261" class="g">learn</text><text x="17.034" y="47.261" class="g">insight</text></svg><svg x="7600"><use xlink:href="#a"/><use xlink:href="#b" x="24.996" y="45.566"/><use xlink:href="#14"/><use xlink:href="#15" y="6.513"/><use xlink:href="#16" y="8.684"/><use xlink:href="#17" y="10.855"/><use xlink:href="#18" y="13.026"/><use xlink:href="#19" y="17.368"/><use xlink:href="#20" y="21.71"/><use xlink:href="#21" y="23.881"/><use xlink:href="#22" y="26.052"/><use xlink:href="#23" y="28.223"/><use xlink:href="#24" y="30.394"/><use xlink:href="#25" y="32.565"/><use xlink:href="#26" y="34.736"/><use xlink:href="#27" y="36.907"/><use xlink:href="#28" y="39.078"/><use xlink:href="#29" y="41.249"/><use xlink:href="#30" y="43.42"/><use xlink:href="#31" y="45.591"/></svg><svg x="7700"><use xlink:href="#a"/><use xlink:href="#b" x="25.996" y="45.566"/><use xlink:href="#14"/><use xlink:href="#15" y="6.513"/><use xlink:href="#16" y="8.684"/><use xlink:href="#17" y="10.855"/><use xlink:href="#18" y="13.026"/><use xlink:href="#19" y="17.368"/><use xlink:href="#20" y="21.71"/><use xlink:href="#21" y="23.881"/><use xlink:href="#22" y="26.052"/><use xlink:href="#23" y="28.223"/><use xlink:href="#24" y="30.394"/><use xlink:href="#25" y="32.565"/><use xlink:href="#26" y="34.736"/><use xlink:href="#27" y="36.907"/><use xlink:href="#28" y="39.078"/><use xlink:href="#29" y="41.249"/><use xlink:href="#30" y="43.42"/><use xlink:href="#31" y="45.591"/></svg><svg x="7800"><use xlink:href="#a"/><use xlink:href="#b" x="26.996" y="45.566"/><use xlink:href="#14"/><use xlink:href="#15" y="6.513"/><use xlink:href="#16" y="8.684"/><use xlink:href="#17" y="10.855"/><use xlink:href="#18" y="13.026"/><use xlink:href="#19" y="17.368"/><use xlink:href="#20" y="21.71"/><use xlink:href="#21" y="23.881"/><use xlink:href="#22" y="26.052"/><use xlink:href="#23" y="28.223"/><use xlink:href="#24" y="30.394"/><use xlink:href="#25" y="32.565"/><use xlink:href="#26" y="34.736"/><use xlink:href="#27" y="36.907"/><use xlink:href="#28" y="39.078"/><use xlink:href="#29" y="41.249"/><use xlink:href="#30" y="43.42"/><text y="47.261" class="f">$</text><text x="2.004" y="47.261" class="g">portoser</text><text x="11.022" y="47.261" class="g">learn</text><text x="17.034" y="47.261" class="g">insights</text><text x="26.052" y="47.261" class="g">g</text></svg><svg x="7900"><use xlink:href="#a"/><use xlink:href="#b" x="27.996" y="45.566"/><use xlink:href="#14"/><use xlink:href="#15" y="6.513"/><use xlink:href="#16" y="8.684"/><use xlink:href="#17" y="10.855"/><use xlink:href="#18" y="13.026"/><use xlink:href="#19" y="17.368"/><use xlink:href="#20" y="21.71"/><use xlink:href="#21" y="23.881"/><use xlink:href="#22" y="26.052"/><use xlink:href="#23" y="28.223"/><use xlink:href="#24" y="30.394"/><use xlink:href="#25" y="32.565"/><use xlink:href="#26" y="34.736"/><use xlink:href="#27" y="36.907"/><use xlink:href="#28" y="39.078"/><use xlink:href="#29" y="41.249"/><use xlink:href="#30" y="43.42"/><text y="47.261" class="f">$</text><text x="2.004" y="47.261" class="g">portoser</text><text x="11.022" y="47.261" class="g">learn</text><text x="17.034" y="47.261" class="g">insights</text><text x="26.052" y="47.261" class="g">gi</text></svg><svg x="8000"><use xlink:href="#a"/><use xlink:href="#b" x="28.996" y="45.566"/><use xlink:href="#14"/><use xlink:href="#15" y="6.513"/><use xlink:href="#16" y="8.684"/><use xlink:href="#17" y="10.855"/><use xlink:href="#18" y="13.026"/><use xlink:href="#19" y="17.368"/><use xlink:href="#20" y="21.71"/><use xlink:href="#21" y="23.881"/><use xlink:href="#22" y="26.052"/><use xlink:href="#23" y="28.223"/><use xlink:href="#24" y="30.394"/><use xlink:href="#25" y="32.565"/><use xlink:href="#26" y="34.736"/><use xlink:href="#27" y="36.907"/><use xlink:href="#28" y="39.078"/><use xlink:href="#29" y="41.249"/><use xlink:href="#30" y="43.42"/><text y="47.261" class="f">$</text><text x="2.004" y="47.261" class="g">portoser</text><text x="11.022" y="47.261" class="g">learn</text><text x="17.034" y="47.261" class="g">insights</text><text x="26.052" y="47.261" class="g">git</text></svg><svg x="8100"><use xlink:href="#a"/><use xlink:href="#b" x="29.996" y="45.566"/><use xlink:href="#14"/><use xlink:href="#15" y="6.513"/><use xlink:href="#16" y="8.684"/><use xlink:href="#17" y="10.855"/><use xlink:href="#18" y="13.026"/><use xlink:href="#19" y="17.368"/><use xlink:href="#20" y="21.71"/><use xlink:href="#21" y="23.881"/><use xlink:href="#22" y="26.052"/><use xlink:href="#23" y="28.223"/><use xlink:href="#24" y="30.394"/><use xlink:href="#25" y="32.565"/><use xlink:href="#26" y="34.736"/><use xlink:href="#27" y="36.907"/><use xlink:href="#28" y="39.078"/><use xlink:href="#29" y="41.249"/><use xlink:href="#30" y="43.42"/><text y="47.261" class="f">$</text><text x="2.004" y="47.261" class="g">portoser</text><text x="11.022" y="47.261" class="g">learn</text><text x="17.034" y="47.261" class="g">insights</text><text x="26.052" y="47.261" class="g">gite</text></svg><svg x="8200"><use xlink:href="#a"/><use xlink:href="#b" x="30.996" y="45.566"/><use xlink:href="#14"/><use xlink:href="#15" y="6.513"/><use xlink:href="#16" y="8.684"/><use xlink:href="#17" y="10.855"/><use xlink:href="#18" y="13.026"/><use xlink:href="#19" y="17.368"/><use xlink:href="#20" y="21.71"/><use xlink:href="#21" y="23.881"/><use xlink:href="#22" y="26.052"/><use xlink:href="#23" y="28.223"/><use xlink:href="#24" y="30.394"/><use xlink:href="#25" y="32.565"/><use xlink:href="#26" y="34.736"/><use xlink:href="#27" y="36.907"/><use xlink:href="#28" y="39.078"/><use xlink:href="#29" y="41.249"/><use xlink:href="#30" y="43.42"/><use xlink:href="#32" y="45.591"/></svg><svg x="8300"><use xlink:href="#a"/><use xlink:href="#b" x="-.004" y="47.737"/><use xlink:href="#14"/><use xlink:href="#15" y="6.513"/><use xlink:href="#16" y="8.684"/><use xlink:href="#17" y="10.855"/><use xlink:href="#18" y="13.026"/><use xlink:href="#19" y="17.368"/><use xlink:href="#20" y="21.71"/><use xlink:href="#21" y="23.881"/><use xlink:href="#22" y="26.052"/><use xlink:href="#23" y="28.223"/><use xlink:href="#24" y="30.394"/><use xlink:href="#25" y="32.565"/><use xlink:href="#26" y="34.736"/><use xlink:href="#27" y="36.907"/><use xlink:href="#28" y="39.078"/><use xlink:href="#29" y="41.249"/><use xlink:href="#30" y="43.42"/><use xlink:href="#32" y="45.591"/></svg><svg x="8400"><use xlink:href="#a"/><use xlink:href="#b" x="-.004" y="60.763"/><use xlink:href="#15" y="4.342"/><use xlink:href="#16" y="6.513"/><use xlink:href="#17" y="8.684"/><use xlink:href="#18" y="10.855"/><use xlink:href="#19" y="15.197"/><use xlink:href="#20" y="19.539"/><use xlink:href="#21" y="21.71"/><use xlink:href="#22" y="23.881"/><use xlink:href="#23" y="26.052"/><use xlink:href="#24" y="28.223"/><use xlink:href="#25" y="30.394"/><use xlink:href="#26" y="32.565"/><use xlink:href="#27" y="34.736"/><use xlink:href="#28" y="36.907"/><use xlink:href="#29" y="39.078"/><use xlink:href="#30" y="41.249"/><use xlink:href="#32" y="43.42"/><text y="47.261" class="g">Service</text><text x="8.016" y="47.261" class="g">Insights:</text><text x="18.036" y="47.261" class="g">gitea</text><text y="49.432" class="g">================================</text><text y="51.603" class="g">Deployment</text><text x="11.022" y="51.603" class="g">Count:</text><text x="18.036" y="51.603" class="g">9</text><text y="53.774" class="g">Average</text><text x="8.016" y="53.774" class="g">Time:</text><text x="14.028" y="53.774" class="g">N/A</text><text y="55.945" class="g">Common</text><text x="7.014" y="55.945" class="g">Problems:\n</text><text x="20.04" y="55.945" class="g">-</text><text x="22.044" y="55.945" class="g">insufficient_memory:</text><text x="43.086" y="55.945" class="g">3</text><text x="45.09" y="55.945" class="g">occurrences\n</text><text x="60.12" y="55.945" class="g">-</text><text x="62.124" y="55.945" class="g">image_pull_failed:</text><text x="81.162" y="55.945" class="g">3</text><text x="83.166" y="55.945" class="g">occurrences\n</text><text x="98.196" y="55.945" class="g">-</text><text y="58.116" class="g">port_conflict:</text><text x="15.03" y="58.116" class="g">2</text><text x="17.034" y="58.116" class="g">occurrences\n</text><text x="32.064" y="58.116" class="g">-</text><text x="34.068" y="58.116" class="g">network_unreachable:</text><text x="55.11" y="58.116" class="g">1</text><text x="57.114" y="58.116" class="g">occurrences</text><text y="60.287" class="g">Solutions</text><text x="10.02" y="60.287" class="g">Applied:</text><text x="19.038" y="60.287" class="g">2</text></svg></svg></g></g></svg></svg>