<svg xmlns="http://www.w3.org/2000/svg" xmlns:xlink="http://www.w3.org/1999/xlink" width="1040" height="667.88"><rect width="1040" height="667.88" rx="5" ry="5" class="a"/><svg y="0%" x="0%"><circle cx="20" cy="20" r="6" fill="#ff5f58"/><circle cx="40" cy="20" r="6" fill="#ffbd2e"/><circle cx="60" cy="20" r="6" fill="#18c132"/></svg><svg height="607.88" viewBox="0 0 100 60.788" width="1000" x="15" xmlns="http://www.w3.org/2000/svg" xmlns:xlink="http://www.w3.org/1999/xlink" y="50"><style>@keyframes j{0%{transform:translateX(0)}2.6%{transform:translateX(-100px)}2.7%{transform:translateX(-200px)}4.4%{transform:translateX(-300px)}6.1%{transform:translateX(-400px)}8.1%{transform:translateX(-500px)}9.9%{transform:translateX(-600px)}11.7%{transform:translateX(-700px)}13.4%{transform:translateX(-800px)}15.3%{transform:translateX(-900px)}17.2%{transform:translateX(-1000px)}19.2%{transform:translateX(-1100px)}21.1%{transform:translateX(-1200px)}23%{transform:translateX(-1300px)}24.6%{transform:translateX(-1400px)}26.7%{transform:translateX(-1500px)}28.4%{transform:translateX(-1600px)}30.1%{transform:translateX(-1700px)}66.7%{transform:translateX(-1800px)}68.9%{transform:translateX(-1900px)}71.5%{transform:translateX(-2000px)}73.1%{transform:translateX(-2100px)}74.9%{transform:translateX(-2200px)}76.8%{transform:translateX(-2300px)}78.3%{transform:translateX(-2400px)}79.7%{transform:translateX(-2500px)}82%{transform:translateX(-2600px)}83.6%{transform:translateX(-2700px)}85.5%{transform:translateX(-2800px)}87.2%{transform:translateX(-2900px)}88.8%{transform:translateX(-3000px)}90.7%{transform:translateX(-3100px)}93.3%{transform:translateX(-3200px)}95%{transform:translateX(-3300px)}96.8%{transform:translateX(-3400px)}98.2%{transform:translateX(-3500px)}to{transform:translateX(-3600px)}}.a{fill:rgb(255,255,255,237)}.f,.g{white-space:pre}.f{fill:#6caa71;font-weight:700}.g{fill:#2d3840}</style><g font-family="Monaco,Consolas,Menlo,'Bitstream Vera Sans Mono','Powerline Symbols',monospace" font-size="1.67"><defs><symbol id="1"><text y="1.67" class="f">$</text><text x="2.004" y="1.67" class="g">portoser</text></symbol><symbol id="2"><text y="1.67" class="f">$</text><text x="2.004" y="1.67" class="g">portoser</text><text x="11.022" y="1.67" class="g">status</text></symbol><symbol id="3"><text y="1.67" class="g">Portoser</text><text x="9.018" y="1.67" class="g">-</text><text x="11.022" y="1.67" class="g">Service</text><text x="19.038" y="1.67" class="g">Status</text><text x="26.052" y="1.67" class="g">Overview</text></symbol><symbol id="4"><text y="1.67" class="g">======================================</text></symbol><symbol id="5"><text y="1.67" class="g">SERVICE</text><text x="26.052" y="1.67" class="g">TYPE</text><text x="37.074" y="1.67" class="g">MACHINE</text><text x="53.106" y="1.67" class="g">STATUS</text><text x="64.128" y="1.67" class="g">HEALTH</text></symbol><symbol id="6"><text y="1.67" class="g">--------------------------------------------------------------------------------</text></symbol><symbol id="7"><text y="1.67" class="g">jellyfin</text><text x="26.052" y="1.67" class="g">docker</text><text x="37.074" y="1.67" class="g">mac-mini</text><text x="53.106" y="1.67" class="g">stopped</text><text x="64.128" y="1.67" class="g">N/A</text></symbol><symbol id="8"><text y="1.67" class="g">homepage</text><text x="26.052" y="1.67" class="g">docker</text><text x="37.074" y="1.67" class="g">mac-mini</text><text x="53.106" y="1.67" class="g">stopped</text><text x="64.128" y="1.67" class="g">N/A</text></symbol><symbol id="9"><text y="1.67" class="g">gitea</text><text x="26.052" y="1.67" class="g">docker</text><text x="37.074" y="1.67" class="g">desktop-pc</text><text x="53.106" y="1.67" class="g">stopped</text><text x="64.128" y="1.67" class="g">N/A</text></symbol><symbol id="10"><text y="1.67" class="g">postgres</text><text x="26.052" y="1.67" class="g">docker</text><text x="37.074" y="1.67" class="g">desktop-pc</text><text x="53.106" y="1.67" class="g">stopped</text><text x="64.128" y="1.67" class="g">N/A</text></symbol><symbol id="11"><text y="1.67" class="g">redis</text><text x="26.052" y="1.67" class="g">docker</text><text x="37.074" y="1.67" class="g">desktop-pc</text><text x="53.106" y="1.67" class="g">stopped</text><text x="64.128" y="1.67" class="g">N/A</text></symbol><symbol id="12"><text y="1.67" class="g">go-fileserver</text><text x="26.052" y="1.67" class="g">docker</text><text x="37.074" y="1.67" class="g">desktop-pc</text><text x="53.106" y="1.67" class="g">stopped</text><text x="64.128" y="1.67" class="g">N/A</text></symbol><symbol id="13"><text y="1.67" class="g">pihole</text><text x="26.052" y="1.67" class="g">docker</text><text x="37.074" y="1.67" class="g">raspi-4</text><text x="53.106" y="1.67" class="g">stopped</text><text x="64.128" y="1.67" class="g">N/A</text></symbol><symbol id="14"><text y="1.67" class="g">homeassistant</text><text x="26.052" y="1.67" class="g">docker</text><text x="37.074" y="1.67" class="g">raspi-4</text><text x="53.106" y="1.67" class="g">stopped</text><text x="64.128" y="1.67" class="g">N/A</text></symbol><symbol id="15"><text y="1.67" class="g">python-sensors</text><text x="26.052" y="1.67" class="g">docker</text><text x="37.074" y="1.67" class="g">raspi-4</text><text x="53.106" y="1.67" class="g">stopped</text><text x="64.128" y="1.67" class="g">N/A</text></symbol><symbol id="16"><text y="1.67" class="g">vaultwarden</text><text x="26.052" y="1.67" class="g">docker</text><text x="37.074" y="1.67" class="g">synology-nas</text><text x="53.106" y="1.67" class="g">stopped</text><text x="64.128" y="1.67" class="g">N/A</text></symbol><symbol id="17"><text y="1.67" class="g">filebrowser</text><text x="26.052" y="1.67" class="g">docker</text><text x="37.074" y="1.67" class="g">synology-nas</text><text x="53.106" y="1.67" class="g">stopped</text><text x="64.128" y="1.67" class="g">N/A</text></symbol><symbol id="18"><text y="1.67" class="g">node-recipes</text><text x="26.052" y="1.67" class="g">docker</text><text x="37.074" y="1.67" class="g">synology-nas</text><text x="53.106" y="1.67" class="g">stopped</text><text x="64.128" y="1.67" class="g">N/A</text></symbol><symbol id="19"><text y="1.67" class="g">n8n</text><text x="26.052" y="1.67" class="g">docker</text><text x="37.074" y="1.67" class="g">framework-laptop</text><text x="54.108" y="1.67" class="g">stopped</text><text x="65.13" y="1.67" class="g">N/A</text></symbol><symbol id="20"><text y="1.67" class="g">uptime-kuma</text><text x="26.052" y="1.67" class="g">docker</text><text x="37.074" y="1.67" class="g">framework-laptop</text><text x="54.108" y="1.67" class="g">stopped</text><text x="65.13" y="1.67" class="g">N/A</text></symbol><symbol id="21"><text y="1.67" class="g">prometheus</text><text x="26.052" y="1.67" class="g">docker</text><text x="37.074" y="1.67" class="g">intel-nuc</text><text x="53.106" y="1.67" class="g">stopped</text><text x="64.128" y="1.67" class="g">N/A</text></symbol><symbol id="22"><text y="1.67" class="g">grafana</text><text x="26.052" y="1.67" class="g">docker</text><text x="37.074" y="1.67" class="g">intel-nuc</text><text x="53.106" y="1.67" class="g">stopped</text><text x="64.128" y="1.67" class="g">N/A</text></symbol><symbol id="a"><path fill="transparent" d="M0 0h100v29H0z"/></symbol><symbol id="b"><path fill="#7f7f7f" d="M0 0h1.102v2.171H0z"/></symbol></defs><path class="a" d="M0 0h100v60.788H0z"/><g style="animation-duration:1.72587s;animation-iteration-count:infinite;animation-name:j;animation-timing-function:steps(1,end)"><svg width="3700"><svg><use xlink:href="#a"/><use xlink:href="#b" x="-.004"/></svg><svg x="100"><use xlink:href="#a"/><use xlink:href="#b" x="-.004"/></svg><svg x="200"><use xlink:href="#a"/><use xlink:href="#b" x="2.996"/><text y="1.67" class="f">$</text><text x="2.004" y="1.67" class="g">p</text></svg><svg x="300"><use xlink:href="#a"/><use xlink:href="#b" x="3.996"/><text y="1.67" class="f">$</text><text x="2.004" y="1.67" class="g">po</text></svg><svg x="400"><use xlink:href="#a"/><use xlink:href="#b" x="4.996"/><text y="1.67" class="f">$</text><text x="2.004" y="1.67" class="g">por</text></svg><svg x="500"><use xlink:href="#a"/><use xlink:href="#b" x="5.996"/><text y="1.67" class="f">$</text><text x="2.004" y="1.67" class="g">port</text></svg><svg x="600"><use xlink:href="#a"/><use xlink:href="#b" x="6.996"/><text y="1.67" class="f">$</text><text x="2.004" y="1.67" class="g">porto</text></svg><svg x="700"><use xlink:href="#a"/><use xlink:href="#b" x="7.996"/><text y="1.67" class="f">$</text><text x="2.004" y="1.67" class="g">portos</text></svg><svg x="800"><use xlink:href="#a"/><use xlink:href="#b" x="8.996"/><text y="1.67" class="f">$</text><text x="2.004" y="1.67" class="g">portose</text></svg><svg x="900"><use xlink:href="#a"/><use xlink:href="#b" x="9.996"/><use xlink:href="#1"/></svg><svg x="1000"><use xlink:href="#a"/><use xlink:href="#b" x="10.996"/><use xlink:href="#1"/></svg><svg x="1100"><use xlink:href="#a"/><use xlink:href="#b" x="11.996"/><text y="1.67" class="f">$</text><text x="2.004" y="1.67" class="g">portoser</text><text x="11.022" y="1.67" class="g">s</text></svg><svg x="1200"><use xlink:href="#a"/><use xlink:href="#b" x="12.996"/><text y="1.67" class="f">$</text><text x="2.004" y="1.67" class="g">portoser</text><text x="11.022" y="1.67" class="g">st</text></svg><svg x="1300"><use xlink:href="#a"/><use xlink:href="#b" x="13.996"/><text y="1.67" class="f">$</text><text x="2.004" y="1.67" class="g">portoser</text><text x="11.022" y="1.67" class="g">sta</text></svg><svg x="1400"><use xlink:href="#a"/><use xlink:href="#b" x="14.996"/><text y="1.67" class="f">$</text><text x="2.004" y="1.67" class="g">portoser</text><text x="11.022" y="1.67" class="g">stat</text></svg><svg x="1500"><use xlink:href="#a"/><use xlink:href="#b" x="15.996"/><text y="1.67" class="f">$</text><text x="2.004" y="1.67" class="g">portoser</text><text x="11.022" y="1.67" class="g">statu</text></svg><svg x="1600"><use xlink:href="#a"/><use xlink:href="#b" x="16.996"/><use xlink:href="#2"/></svg><svg x="1700"><use xlink:href="#a"/><use xlink:href="#b" x="-.004" y="2.146"/><use xlink:href="#2"/></svg><svg x="1800"><use xlink:href="#a"/><use xlink:href="#b" x="-.004" y="8.659"/><use xlink:href="#2"/><use xlink:href="#3" y="2.171"/><use xlink:href="#4" y="4.342"/></svg><svg x="1900"><use xlink:href="#a"/><use xlink:href="#b" x="-.004" y="13.001"/><use xlink:href="#2"/><use xlink:href="#3" y="2.171"/><use xlink:href="#4" y="4.342"/><use xlink:href="#5" y="8.684"/><use xlink:href="#6" y="10.855"/></svg><svg x="2000"><use xlink:href="#a"/><use xlink:href="#b" x="-.004" y="15.172"/><use xlink:href="#2"/><use xlink:href="#3" y="2.171"/><use xlink:href="#4" y="4.342"/><use xlink:href="#5" y="8.684"/><use xlink:href="#6" y="10.855"/><use xlink:href="#7" y="13.026"/></svg><svg x="2100"><use xlink:href="#a"/><use xlink:href="#b" x="-.004" y="17.343"/><use xlink:href="#2"/><use xlink:href="#3" y="2.171"/><use xlink:href="#4" y="4.342"/><use xlink:href="#5" y="8.684"/><use xlink:href="#6" y="10.855"/><use xlink:href="#7" y="13.026"/><use xlink:href="#8" y="15.197"/></svg><svg x="2200"><use xlink:href="#a"/><use xlink:href="#b" x="-.004" y="19.514"/><use xlink:href="#2"/><use xlink:href="#3" y="2.171"/><use xlink:href="#4" y="4.342"/><use xlink:href="#5" y="8.684"/><use xlink:href="#6" y="10.855"/><use xlink:href="#7" y="13.026"/><use xlink:href="#8" y="15.197"/><use xlink:href="#9" y="17.368"/></svg><svg x="2300"><use xlink:href="#a"/><use xlink:href="#b" x="-.004" y="21.685"/><use xlink:href="#2"/><use xlink:href="#3" y="2.171"/><use xlink:href="#4" y="4.342"/><use xlink:href="#5" y="8.684"/><use xlink:href="#6" y="10.855"/><use xlink:href="#7" y="13.026"/><use xlink:href="#8" y="15.197"/><use xlink:href="#9" y="17.368"/><use xlink:href="#10" y="19.539"/></svg><svg x="2400"><use xlink:href="#a"/><use xlink:href="#b" x="-.004" y="23.856"/><use xlink:href="#2"/><use xlink:href="#3" y="2.171"/><use xlink:href="#4" y="4.342"/><use xlink:href="#5" y="8.684"/><use xlink:href="#6" y="10.855"/><use xlink:href="#7" y="13.026"/><use xlink:href="#8" y="15.197"/><use xlink:href="#9" y="17.368"/><use xlink:href="#10" y="19.539"/><use xlink:href="#11" y="21.71"/></svg><svg x="2500"><use xlink:href="#a"/><use xlink:href="#b" x="-.004" y="26.027"/><use xlink:href="#2"/><use xlink:href="#3" y="2.171"/><use xlink:href="#4" y="4.342"/><use xlink:href="#5" y="8.684"/><use xlink:href="#6" y="10.855"/><use xlink:href="#7" y="13.026"/><use xlink:href="#8" y="15.197"/><use xlink:href="#9" y="17.368"/><use xlink:href="#10" y="19.539"/><use xlink:href="#11" y="21.71"/><use xlink:href="#12" y="23.881"/></svg><svg x="2600"><use xlink:href="#a"/><use xlink:href="#b" x="-.004" y="28.198"/><use xlink:href="#2"/><use xlink:href="#3" y="2.171"/><use xlink:href="#4" y="4.342"/><use xlink:href="#5" y="8.684"/><use xlink:href="#6" y="10.855"/><use xlink:href="#7" y="13.026"/><use xlink:href="#8" y="15.197"/><use xlink:href="#9" y="17.368"/><use xlink:href="#10" y="19.539"/><use xlink:href="#11" y="21.71"/><use xlink:href="#12" y="23.881"/><use xlink:href="#13" y="26.052"/></svg><svg x="2700"><use xlink:href="#a"/><use xlink:href="#b" x="-.004" y="30.369"/><use xlink:href="#2"/><use xlink:href="#3" y="2.171"/><use xlink:href="#4" y="4.342"/><use xlink:href="#5" y="8.684"/><use xlink:href="#6" y="10.855"/><use xlink:href="#7" y="13.026"/><use xlink:href="#8" y="15.197"/><use xlink:href="#9" y="17.368"/><use xlink:href="#10" y="19.539"/><use xlink:href="#11" y="21.71"/><use xlink:href="#12" y="23.881"/><use xlink:href="#13" y="26.052"/><use xlink:href="#14" y="28.223"/></svg><svg x="2800"><use xlink:href="#a"/><use xlink:href="#b" x="-.004" y="32.54"/><use xlink:href="#2"/><use xlink:href="#3" y="2.171"/><use xlink:href="#4" y="4.342"/><use xlink:href="#5" y="8.684"/><use xlink:href="#6" y="10.855"/><use xlink:href="#7" y="13.026"/><use xlink:href="#8" y="15.197"/><use xlink:href="#9" y="17.368"/><use xlink:href="#10" y="19.539"/><use xlink:href="#11" y="21.71"/><use xlink:href="#12" y="23.881"/><use xlink:href="#13" y="26.052"/><use xlink:href="#14" y="28.223"/><use xlink:href="#15" y="30.394"/></svg><svg x="2900"><use xlink:href="#a"/><use xlink:href="#b" x="-.004" y="34.711"/><use xlink:href="#2"/><use xlink:href="#3" y="2.171"/><use xlink:href="#4" y="4.342"/><use xlink:href="#5" y="8.684"/><use xlink:href="#6" y="10.855"/><use xlink:href="#7" y="13.026"/><use xlink:href="#8" y="15.197"/><use xlink:href="#9" y="17.368"/><use xlink:href="#10" y="19.539"/><use xlink:href="#11" y="21.71"/><use xlink:href="#12" y="23.881"/><use xlink:href="#13" y="26.052"/><use xlink:href="#14" y="28.223"/><use xlink:href="#15" y="30.394"/><use xlink:href="#16" y="32.565"/></svg><svg x="3000"><use xlink:href="#a"/><use xlink:href="#b" x="-.004" y="36.882"/><use xlink:href="#2"/><use xlink:href="#3" y="2.171"/><use xlink:href="#4" y="4.342"/><use xlink:href="#5" y="8.684"/><use xlink:href="#6" y="10.855"/><use xlink:href="#7" y="13.026"/><use xlink:href="#8" y="15.197"/><use xlink:href="#9" y="17.368"/><use xlink:href="#10" y="19.539"/><use xlink:href="#11" y="21.71"/><use xlink:href="#12" y="23.881"/><use xlink:href="#13" y="26.052"/><use xlink:href="#14" y="28.223"/><use xlink:href="#15" y="30.394"/><use xlink:href="#16" y="32.565"/><use xlink:href="#17" y="34.736"/></svg><svg x="3100"><use xlink:href="#a"/><use xlink:href="#b" x="-.004" y="39.053"/><use xlink:href="#2"/><use xlink:href="#3" y="2.171"/><use xlink:href="#4" y="4.342"/><use xlink:href="#5" y="8.684"/><use xlink:href="#6" y="10.855"/><use xlink:href="#7" y="13.026"/><use xlink:href="#8" y="15.197"/><use xlink:href="#9" y="17.368"/><use xlink:href="#10" y="19.539"/><use xlink:href="#11" y="21.71"/><use xlink:href="#12" y="23.881"/><use xlink:href="#13" y="26.052"/><use xlink:href="#14" y="28.223"/><use xlink:href="#15" y="30.394"/><use xlink:href="#16" y="32.565"/><use xlink:href="#17" y="34.736"/><use xlink:href="#18" y="36.907"/></svg><svg x="3200"><use xlink:href="#a"/><use xlink:href="#b" x="-.004" y="41.224"/><use xlink:href="#2"/><use xlink:href="#3" y="2.171"/><use xlink:href="#4" y="4.342"/><use xlink:href="#5" y="8.684"/><use xlink:href="#6" y="10.855"/><use xlink:href="#7" y="13.026"/><use xlink:href="#8" y="15.197"/><use xlink:href="#9" y="17.368"/><use xlink:href="#10" y="19.539"/><use xlink:href="#11" y="21.71"/><use xlink:href="#12" y="23.881"/><use xlink:href="#13" y="26.052"/><use xlink:href="#14" y="28.223"/><use xlink:href="#15" y="30.394"/><use xlink:href="#16" y="32.565"/><use xlink:href="#17" y="34.736"/><use xlink:href="#18" y="36.907"/><use xlink:href="#19" y="39.078"/></svg><svg x="3300"><use xlink:href="#a"/><use xlink:href="#b" x="-.004" y="43.395"/><use xlink:href="#2"/><use xlink:href="#3" y="2.171"/><use xlink:href="#4" y="4.342"/><use xlink:href="#5" y="8.684"/><use xlink:href="#6" y="10.855"/><use xlink:href="#7" y="13.026"/><use xlink:href="#8" y="15.197"/><use xlink:href="#9" y="17.368"/><use xlink:href="#10" y="19.539"/><use xlink:href="#11" y="21.71"/><use xlink:href="#12" y="23.881"/><use xlink:href="#13" y="26.052"/><use xlink:href="#14" y="28.223"/><use xlink:href="#15" y="30.394"/><use xlink:href="#16" y="32.565"/><use xlink:href="#17" y="34.736"/><use xlink:href="#18" y="36.907"/><use xlink:href="#19" y="39.078"/><use xlink:href="#20" y="41.249"/></svg><svg x="3400"><use xlink:href="#a"/><use xlink:href="#b" x="-.004" y="45.566"/><use xlink:href="#2"/><use xlink:href="#3" y="2.171"/><use xlink:href="#4" y="4.342"/><use xlink:href="#5" y="8.684"/><use xlink:href="#6" y="10.855"/><use xlink:href="#7" y="13.026"/><use xlink:href="#8" y="15.197"/><use xlink:href="#9" y="17.368"/><use xlink:href="#10" y="19.539"/><use xlink:href="#11" y="21.71"/><use xlink:href="#12" y="23.881"/><use xlink:href="#13" y="26.052"/><use xlink:href="#14" y="28.223"/><use xlink:href="#15" y="30.394"/><use xlink:href="#16" y="32.565"/><use xlink:href="#17" y="34.736"/><use xlink:href="#18" y="36.907"/><use xlink:href="#19" y="39.078"/><use xlink:href="#20" y="41.249"/><use xlink:href="#21" y="43.42"/></svg><svg x="3500"><use xlink:href="#a"/><use xlink:href="#b" x="-.004" y="47.737"/><use xlink:href="#2"/><use xlink:href="#3" y="2.171"/><use xlink:href="#4" y="4.342"/><use xlink:href="#5" y="8.684"/><use xlink:href="#6" y="10.855"/><use xlink:href="#7" y="13.026"/><use xlink:href="#8" y="15.197"/><use xlink:href="#9" y="17.368"/><use xlink:href="#10" y="19.539"/><use xlink:href="#11" y="21.71"/><use xlink:href="#12" y="23.881"/><use xlink:href="#13" y="26.052"/><use xlink:href="#14" y="28.223"/><use xlink:href="#15" y="30.394"/><use xlink:href="#16" y="32.565"/><use xlink:href="#17" y="34.736"/><use xlink:href="#18" y="36.907"/><use xlink:href="#19" y="39.078"/><use xlink:href="#20" y="41.249"/><use xlink:href="#21" y="43.42"/><use xlink:href="#22" y="45.591"/></svg><svg x="3600"><use xlink:href="#a"/><use xlink:href="#b" x="-.004" y="52.079"/><use xlink:href="#2"/><use xlink:href="#3" y="2.171"/><use xlink:href="#4" y="4.342"/><use xlink:href="#5" y="8.684"/><use xlink:href="#6" y="10.855"/><use xlink:href="#7" y="13.026"/><use xlink:href="#8" y="15.197"/><use xlink:href="#9" y="17.368"/><use xlink:href="#10" y="19.539"/><use xlink:href="#11" y="21.71"/><use xlink:href="#12" y="23.881"/><use xlink:href="#13" y="26.052"/><use xlink:href="#14" y="28.223"/><use xlink:href="#15" y="30.394"/><use xlink:href="#16" y="32.565"/><use xlink:href="#17" y="34.736"/><use xlink:href="#18" y="36.907"/><use xlink:href="#19" y="39.078"/><use xlink:href="#20" y="41.249"/><use xlink:href="#21" y="43.42"/><use xlink:href="#22" y="45.591"/><text y="49.432" class="g">caddy</text><text x="26.052" y="49.432" class="g">docker</text><text x="37.074" y="49.432" class="g">intel-nuc</text><text x="53.106" y="49.432" class="g">stopped</text><text x="64.128" y="49.432" class="g">N/A</text></svg></svg></g></g></svg></svg>