<svg xmlns="http://www.w3.org/2000/svg" xmlns:xlink="http://www.w3.org/1999/xlink" width="1040" height="711.3"><rect width="1040" height="711.3" rx="5" ry="5" class="a"/><svg y="0%" x="0%"><circle cx="20" cy="20" r="6" fill="#ff5f58"/><circle cx="40" cy="20" r="6" fill="#ffbd2e"/><circle cx="60" cy="20" r="6" fill="#18c132"/></svg><svg height="651.3" viewBox="0 0 100 65.13" width="1000" x="15" xmlns="http://www.w3.org/2000/svg" xmlns:xlink="http://www.w3.org/1999/xlink" y="50"><style>@keyframes p{0%{transform:translateX(0)}1.2%{transform:translateX(-200px)}1.9%{transform:translateX(-300px)}2.6%{transform:translateX(-400px)}3.3%{transform:translateX(-500px)}4.1%{transform:translateX(-600px)}4.7%{transform:translateX(-700px)}5.6%{transform:translateX(-800px)}6.4%{transform:translateX(-900px)}7.1%{transform:translateX(-1000px)}7.9%{transform:translateX(-1100px)}8.6%{transform:translateX(-1200px)}9.3%{transform:translateX(-1300px)}10.1%{transform:translateX(-1400px)}10.8%{transform:translateX(-1500px)}11.6%{transform:translateX(-1600px)}12.3%{transform:translateX(-1700px)}13%{transform:translateX(-1800px)}13.8%{transform:translateX(-1900px)}14.6%{transform:translateX(-2000px)}15.4%{transform:translateX(-2100px)}16.1%{transform:translateX(-2200px)}16.9%{transform:translateX(-2300px)}17.7%{transform:translateX(-2400px)}18.5%{transform:translateX(-2500px)}19.2%{transform:translateX(-2600px)}19.9%{transform:translateX(-2700px)}20.6%{transform:translateX(-2800px)}21.4%{transform:translateX(-2900px)}22.1%{transform:translateX(-3000px)}22.9%{transform:translateX(-3100px)}23.7%{transform:translateX(-3200px)}24.5%{transform:translateX(-3300px)}25.3%{transform:translateX(-3400px)}26.1%{transform:translateX(-3500px)}26.9%{transform:translateX(-3600px)}27.6%{transform:translateX(-3700px)}28.4%{transform:translateX(-3800px)}29%{transform:translateX(-3900px)}29.8%{transform:translateX(-4000px)}30.6%{transform:translateX(-4100px)}52.1%{transform:translateX(-4200px)}52.3%{transform:translateX(-4300px)}56.2%{transform:translateX(-4400px)}69.9%{transform:translateX(-4500px)}77.1%{transform:translateX(-4600px)}84%{transform:translateX(-4700px)}87.4%{transform:translateX(-4800px)}97.9%{transform:translateX(-4900px)}98.2%{transform:translateX(-5000px)}98.6%{transform:translateX(-5500px)}98.7%{transform:translateX(-5900px)}99%{transform:translateX(-6100px)}99.5%{transform:translateX(-6300px)}99.6%{transform:translateX(-6400px)}99.8%{transform:translateX(-6600px)}to{transform:translateX(-6700px)}}.a{fill:rgb(255,255,255,237)}.f,.g,.h,.i{white-space:pre}.f{fill:#6caa71;font-weight:700}.g,.h,.i{fill:#2d3840}.h,.i{fill:#5685a8}.i{fill:#6caa71}.j{fill:#b45648}.j,.k,.l,.m{white-space:pre}.k{fill:#c4ac62;font-weight:700}.l,.m{fill:#ad64be}.m{fill:#69c6c9}</style><g font-family="Monaco,Consolas,Menlo,'Bitstream Vera Sans Mono','Powerline Symbols',monospace" font-size="1.67"><defs><symbol id="1"><text y="1.67" class="f">$</text><text x="2.004" y="1.67" class="g">portoser</text></symbol><symbol id="2"><text y="1.67" class="f">$</text><text x="2.004" y="1.67" class="g">portoser</text><text x="11.022" y="1.67" class="g">diagnose</text></symbol><symbol id="3"><text y="1.67" class="f">$</text><text x="2.004" y="1.67" class="g">portoser</text><text x="11.022" y="1.67" class="g">diagnose</text><text x="20.04" y="1.67" class="g">homeassistant</text></symbol><symbol id="4"><text y="1.67" class="f">$</text><text x="2.004" y="1.67" class="g">portoser</text><text x="11.022" y="1.67" class="g">diagnose</text><text x="20.04" y="1.67" class="g">homeassistant</text><text x="34.068" y="1.67" class="g">raspi-4</text></symbol><symbol id="5"><text y="1.67" class="g">🔍</text><text x="3.006" y="1.67" class="g">DIAGNOSTIC</text><text x="14.028" y="1.67" class="g">MODE</text></symbol><symbol id="6"><text y="1.67" class="g">Service:</text><text x="9.018" y="1.67" class="g">homeassistant</text></symbol><symbol id="7"><text y="1.67" class="g">Machine:</text><text x="9.018" y="1.67" class="g">raspi-4</text></symbol><symbol id="8"><text y="1.67" class="g">================================================================</text></symbol><symbol id="9"><text y="1.67" class="h">🔍</text><text x="3.006" y="1.67" class="h">Observing</text><text x="13.026" y="1.67" class="h">deployment</text><text x="24.048" y="1.67" class="h">readiness</text><text x="34.068" y="1.67" class="h">for</text><text x="38.076" y="1.67" class="h">homeassistant</text><text x="52.104" y="1.67" class="h">on</text><text x="55.11" y="1.67" class="h">raspi-4...</text></symbol><symbol id="10"><text x="3.006" y="1.67" class="i">✓</text><text x="5.01" y="1.67" class="i">SSH</text><text x="9.018" y="1.67" class="i">to</text><text x="12.024" y="1.67" class="i">raspi-4</text><text x="20.04" y="1.67" class="i">(172.18.99.30):</text><text x="36.072" y="1.67" class="i">Connected</text></symbol><symbol id="11"><text x="3.006" y="1.67" class="i">✓</text><text x="5.01" y="1.67" class="i">Docker</text><text x="12.024" y="1.67" class="i">on</text><text x="15.03" y="1.67" class="i">raspi-4:</text><text x="24.048" y="1.67" class="i">Running</text></symbol><symbol id="12"><text x="3.006" y="1.67" class="i">✓</text><text x="5.01" y="1.67" class="i">Prereq:</text><text x="13.026" y="1.67" class="i">Docker</text><text x="20.04" y="1.67" class="i">+</text><text x="22.044" y="1.67" class="i">Compose</text><text x="30.06" y="1.67" class="i">present</text><text x="38.076" y="1.67" class="i">on</text><text x="41.082" y="1.67" class="i">raspi-4</text></symbol><symbol id="13"><text x="3.006" y="1.67" class="i">✓</text><text x="5.01" y="1.67" class="i">Port</text><text x="10.02" y="1.67" class="i">8123</text><text x="15.03" y="1.67" class="i">on</text><text x="18.036" y="1.67" class="i">raspi-4:</text><text x="27.054" y="1.67" class="i">Available</text></symbol><symbol id="14"><text x="3.006" y="1.67" class="i">✓</text><text x="5.01" y="1.67" class="i">Disk</text><text x="10.02" y="1.67" class="i">space</text><text x="16.032" y="1.67" class="i">on</text><text x="19.038" y="1.67" class="i">raspi-4:</text><text x="28.056" y="1.67" class="i">20%</text><text x="32.064" y="1.67" class="i">(healthy)</text></symbol><symbol id="15"><text x="3.006" y="1.67" class="j">✗</text><text x="5.01" y="1.67" class="j">Dependency</text><text x="16.032" y="1.67" class="j">python-sensors:</text><text x="32.064" y="1.67" class="j">Unhealthy</text></symbol><symbol id="16"><text y="1.67" class="h">🔍</text><text x="3.006" y="1.67" class="h">Observation</text><text x="15.03" y="1.67" class="h">complete:</text><text x="25.05" y="1.67" class="k">1</text><text x="27.054" y="1.67" class="k">issues</text><text x="34.068" y="1.67" class="k">detected</text><text x="43.086" y="1.67" class="g">(5</text><text x="46.092" y="1.67" class="g">passed)</text></symbol><symbol id="17"><text y="1.67" class="h">📊</text><text x="3.006" y="1.67" class="h">Grasping</text><text x="12.024" y="1.67" class="h">the</text><text x="16.032" y="1.67" class="h">situation</text><text x="26.052" y="1.67" class="h">for</text><text x="30.06" y="1.67" class="h">homeassistant</text><text x="44.088" y="1.67" class="h">deployment</text><text x="55.11" y="1.67" class="h">to</text><text x="58.116" y="1.67" class="h">raspi-4...</text></symbol><symbol id="18"><text y="1.67" class="h">📊</text><text x="3.006" y="1.67" class="h">Analyzing</text><text x="13.026" y="1.67" class="h">observations...</text></symbol><symbol id="19"><text y="1.67" class="h">📊</text><text x="3.006" y="1.67" class="h">PROBLEMS</text><text x="12.024" y="1.67" class="h">IDENTIFIED</text><text x="23.046" y="1.67" class="h">(1):</text></symbol><symbol id="20"><text y="1.67" class="j">🔴</text><text x="3.006" y="1.67" class="j">Problem:</text><text x="12.024" y="1.67" class="j">Some</text><text x="17.034" y="1.67" class="j">dependencies</text><text x="30.06" y="1.67" class="j">unhealthy</text></symbol><symbol id="21"><text y="1.67" class="l">→</text><text x="3.006" y="1.67" class="l">Analyzing:</text><text x="14.028" y="1.67" class="l">PROBLEM_DEPENDENCY_UNHEALTHY</text></symbol><symbol id="22"><text y="1.67" class="l">→</text><text x="3.006" y="1.67" class="l">Service</text><text x="11.022" y="1.67" class="l">homeassistant</text><text x="25.05" y="1.67" class="l">cannot</text><text x="32.064" y="1.67" class="l">start</text><text x="38.076" y="1.67" class="l">because</text><text x="46.092" y="1.67" class="l">its</text><text x="50.1" y="1.67" class="l">dependencies</text><text x="63.126" y="1.67" class="l">are</text><text x="67.134" y="1.67" class="l">not</text><text x="71.142" y="1.67" class="l">ready:</text><text x="78.156" y="1.67" class="l">python-sensors.</text><text x="94.188" y="1.67" class="l">Depend</text></symbol><symbol id="23"><text y="1.67" class="l">encies</text><text x="7.014" y="1.67" class="l">must</text><text x="12.024" y="1.67" class="l">be</text><text x="15.03" y="1.67" class="l">healthy</text><text x="23.046" y="1.67" class="l">before</text><text x="30.06" y="1.67" class="l">deployment.</text></symbol><symbol id="24"><text y="1.67" class="h">📊</text><text x="3.006" y="1.67" class="h">Diagnostic</text><text x="14.028" y="1.67" class="h">report</text><text x="21.042" y="1.67" class="h">saved:</text><text x="28.056" y="1.67" class="h">/root/.portoser/diagnostics/homeassistant_raspi-4_1778248608.md</text></symbol><symbol id="25"><text y="1.67" class="g">HEALTH</text><text x="7.014" y="1.67" class="g">SCORE:</text><text x="14.028" y="1.67" class="g">85/100</text></symbol><symbol id="26"><text y="1.67" class="g">Status:</text><text x="8.016" y="1.67" class="g">DEGRADED</text></symbol><symbol id="27"><text y="1.67" class="m">🔧</text><text x="3.006" y="1.67" class="m">PROBLEMS</text><text x="12.024" y="1.67" class="m">IDENTIFIED:</text></symbol><symbol id="28"><text x="2.004" y="1.67" class="g">Problem:</text><text x="11.022" y="1.67" class="g">PROBLEM_DEPENDENCY_UNHEALTHY</text></symbol><symbol id="29"><text x="2.004" y="1.67" class="g">Frequency:</text><text x="13.026" y="1.67" class="g">Seen</text><text x="18.036" y="1.67" class="g">0</text></symbol><symbol id="30"><text y="1.67" class="g">0</text><text x="2.004" y="1.67" class="g">times</text><text x="8.016" y="1.67" class="g">in</text><text x="11.022" y="1.67" class="g">deployment</text><text x="22.044" y="1.67" class="g">history</text></symbol><symbol id="31"><text x="2.004" y="1.67" class="g">Solution:</text><text x="12.024" y="1.67" class="g">dependency_not_ready</text><text x="33.066" y="1.67" class="g">(0%</text><text x="37.074" y="1.67" class="g">success</text><text x="45.09" y="1.67" class="g">rate)</text></symbol><symbol id="32"><text x="2.004" y="1.67" class="g">To</text><text x="5.01" y="1.67" class="g">auto-fix,</text><text x="15.03" y="1.67" class="g">run:</text></symbol><symbol id="33"><text x="4.008" y="1.67" class="g">portoser</text><text x="13.026" y="1.67" class="g">deploy</text><text x="20.04" y="1.67" class="g">raspi-4</text><text x="28.056" y="1.67" class="g">homeassistant</text></symbol><symbol id="a"><path fill="transparent" d="M0 0h100v31H0z"/></symbol><symbol id="b"><path fill="#7f7f7f" d="M0 0h1.102v2.171H0z"/></symbol></defs><path class="a" d="M0 0h100v65.13H0z"/><g style="animation-duration:4.435288s;animation-iteration-count:infinite;animation-name:p;animation-timing-function:steps(1,end)"><svg width="6800"><svg><use xlink:href="#a"/><use xlink:href="#b" x="-.004"/></svg><svg x="100"><use xlink:href="#a"/><use xlink:href="#b" x="-.004"/></svg><svg x="200"><use xlink:href="#a"/><use xlink:href="#b" x="2.996"/><text y="1.67" class="f">$</text><text x="2.004" y="1.67" class="g">p</text></svg><svg x="300"><use xlink:href="#a"/><use xlink:href="#b" x="3.996"/><text y="1.67" class="f">$</text><text x="2.004" y="1.67" class="g">po</text></svg><svg x="400"><use xlink:href="#a"/><use xlink:href="#b" x="4.996"/><text y="1.67" class="f">$</text><text x="2.004" y="1.67" class="g">por</text></svg><svg x="500"><use xlink:href="#a"/><use xlink:href="#b" x="5.996"/><text y="1.67" class="f">$</text><text x="2.004" y="1.67" class="g">port</text></svg><svg x="600"><use xlink:href="#a"/><use xlink:href="#b" x="6.996"/><text y="1.67" class="f">$</text><text x="2.004" y="1.67" class="g">porto</text></svg><svg x="700"><use xlink:href="#a"/><use xlink:href="#b" x="7.996"/><text y="1.67" class="f">$</text><text x="2.004" y="1.67" class="g">portos</text></svg><svg x="800"><use xlink:href="#a"/><use xlink:href="#b" x="8.996"/><text y="1.67" class="f">$</text><text x="2.004" y="1.67" class="g">portose</text></svg><svg x="900"><use xlink:href="#a"/><use xlink:href="#b" x="9.996"/><use xlink:href="#1"/></svg><svg x="1000"><use xlink:href="#a"/><use xlink:href="#b" x="10.996"/><use xlink:href="#1"/></svg><svg x="1100"><use xlink:href="#a"/><use xlink:href="#b" x="11.996"/><text y="1.67" class="f">$</text><text x="2.004" y="1.67" class="g">portoser</text><text x="11.022" y="1.67" class="g">d</text></svg><svg x="1200"><use xlink:href="#a"/><use xlink:href="#b" x="12.996"/><text y="1.67" class="f">$</text><text x="2.004" y="1.67" class="g">portoser</text><text x="11.022" y="1.67" class="g">di</text></svg><svg x="1300"><use xlink:href="#a"/><use xlink:href="#b" x="13.996"/><text y="1.67" class="f">$</text><text x="2.004" y="1.67" class="g">portoser</text><text x="11.022" y="1.67" class="g">dia</text></svg><svg x="1400"><use xlink:href="#a"/><use xlink:href="#b" x="14.996"/><text y="1.67" class="f">$</text><text x="2.004" y="1.67" class="g">portoser</text><text x="11.022" y="1.67" class="g">diag</text></svg><svg x="1500"><use xlink:href="#a"/><use xlink:href="#b" x="15.996"/><text y="1.67" class="f">$</text><text x="2.004" y="1.67" class="g">portoser</text><text x="11.022" y="1.67" class="g">diagn</text></svg><svg x="1600"><use xlink:href="#a"/><use xlink:href="#b" x="16.996"/><text y="1.67" class="f">$</text><text x="2.004" y="1.67" class="g">portoser</text><text x="11.022" y="1.67" class="g">diagno</text></svg><svg x="1700"><use xlink:href="#a"/><use xlink:href="#b" x="17.996"/><text y="1.67" class="f">$</text><text x="2.004" y="1.67" class="g">portoser</text><text x="11.022" y="1.67" class="g">diagnos</text></svg><svg x="1800"><use xlink:href="#a"/><use xlink:href="#b" x="18.996"/><use xlink:href="#2"/></svg><svg x="1900"><use xlink:href="#a"/><use xlink:href="#b" x="19.996"/><use xlink:href="#2"/></svg><svg x="2000"><use xlink:href="#a"/><use xlink:href="#b" x="20.996"/><text y="1.67" class="f">$</text><text x="2.004" y="1.67" class="g">portoser</text><text x="11.022" y="1.67" class="g">diagnose</text><text x="20.04" y="1.67" class="g">h</text></svg><svg x="2100"><use xlink:href="#a"/><use xlink:href="#b" x="21.996"/><text y="1.67" class="f">$</text><text x="2.004" y="1.67" class="g">portoser</text><text x="11.022" y="1.67" class="g">diagnose</text><text x="20.04" y="1.67" class="g">ho</text></svg><svg x="2200"><use xlink:href="#a"/><use xlink:href="#b" x="22.996"/><text y="1.67" class="f">$</text><text x="2.004" y="1.67" class="g">portoser</text><text x="11.022" y="1.67" class="g">diagnose</text><text x="20.04" y="1.67" class="g">hom</text></svg><svg x="2300"><use xlink:href="#a"/><use xlink:href="#b" x="23.996"/><text y="1.67" class="f">$</text><text x="2.004" y="1.67" class="g">portoser</text><text x="11.022" y="1.67" class="g">diagnose</text><text x="20.04" y="1.67" class="g">home</text></svg><svg x="2400"><use xlink:href="#a"/><use xlink:href="#b" x="24.996"/><text y="1.67" class="f">$</text><text x="2.004" y="1.67" class="g">portoser</text><text x="11.022" y="1.67" class="g">diagnose</text><text x="20.04" y="1.67" class="g">homea</text></svg><svg x="2500"><use xlink:href="#a"/><use xlink:href="#b" x="25.996"/><text y="1.67" class="f">$</text><text x="2.004" y="1.67" class="g">portoser</text><text x="11.022" y="1.67" class="g">diagnose</text><text x="20.04" y="1.67" class="g">homeas</text></svg><svg x="2600"><use xlink:href="#a"/><use xlink:href="#b" x="26.996"/><text y="1.67" class="f">$</text><text x="2.004" y="1.67" class="g">portoser</text><text x="11.022" y="1.67" class="g">diagnose</text><text x="20.04" y="1.67" class="g">homeass</text></svg><svg x="2700"><use xlink:href="#a"/><use xlink:href="#b" x="27.996"/><text y="1.67" class="f">$</text><text x="2.004" y="1.67" class="g">portoser</text><text x="11.022" y="1.67" class="g">diagnose</text><text x="20.04" y="1.67" class="g">homeassi</text></svg><svg x="2800"><use xlink:href="#a"/><use xlink:href="#b" x="28.996"/><text y="1.67" class="f">$</text><text x="2.004" y="1.67" class="g">portoser</text><text x="11.022" y="1.67" class="g">diagnose</text><text x="20.04" y="1.67" class="g">homeassis</text></svg><svg x="2900"><use xlink:href="#a"/><use xlink:href="#b" x="29.996"/><text y="1.67" class="f">$</text><text x="2.004" y="1.67" class="g">portoser</text><text x="11.022" y="1.67" class="g">diagnose</text><text x="20.04" y="1.67" class="g">homeassist</text></svg><svg x="3000"><use xlink:href="#a"/><use xlink:href="#b" x="30.996"/><text y="1.67" class="f">$</text><text x="2.004" y="1.67" class="g">portoser</text><text x="11.022" y="1.67" class="g">diagnose</text><text x="20.04" y="1.67" class="g">homeassista</text></svg><svg x="3100"><use xlink:href="#a"/><use xlink:href="#b" x="31.996"/><text y="1.67" class="f">$</text><text x="2.004" y="1.67" class="g">portoser</text><text x="11.022" y="1.67" class="g">diagnose</text><text x="20.04" y="1.67" class="g">homeassistan</text></svg><svg x="3200"><use xlink:href="#a"/><use xlink:href="#b" x="32.996"/><use xlink:href="#3"/></svg><svg x="3300"><use xlink:href="#a"/><use xlink:href="#b" x="33.996"/><use xlink:href="#3"/></svg><svg x="3400"><use xlink:href="#a"/><use xlink:href="#b" x="34.996"/><text y="1.67" class="f">$</text><text x="2.004" y="1.67" class="g">portoser</text><text x="11.022" y="1.67" class="g">diagnose</text><text x="20.04" y="1.67" class="g">homeassistant</text><text x="34.068" y="1.67" class="g">r</text></svg><svg x="3500"><use xlink:href="#a"/><use xlink:href="#b" x="35.996"/><text y="1.67" class="f">$</text><text x="2.004" y="1.67" class="g">portoser</text><text x="11.022" y="1.67" class="g">diagnose</text><text x="20.04" y="1.67" class="g">homeassistant</text><text x="34.068" y="1.67" class="g">ra</text></svg><svg x="3600"><use xlink:href="#a"/><use xlink:href="#b" x="36.996"/><text y="1.67" class="f">$</text><text x="2.004" y="1.67" class="g">portoser</text><text x="11.022" y="1.67" class="g">diagnose</text><text x="20.04" y="1.67" class="g">homeassistant</text><text x="34.068" y="1.67" class="g">ras</text></svg><svg x="3700"><use xlink:href="#a"/><use xlink:href="#b" x="37.996"/><text y="1.67" class="f">$</text><text x="2.004" y="1.67" class="g">portoser</text><text x="11.022" y="1.67" class="g">diagnose</text><text x="20.04" y="1.67" class="g">homeassistant</text><text x="34.068" y="1.67" class="g">rasp</text></svg><svg x="3800"><use xlink:href="#a"/><use xlink:href="#b" x="38.996"/><text y="1.67" class="f">$</text><text x="2.004" y="1.67" class="g">portoser</text><text x="11.022" y="1.67" class="g">diagnose</text><text x="20.04" y="1.67" class="g">homeassistant</text><text x="34.068" y="1.67" class="g">raspi</text></svg><svg x="3900"><use xlink:href="#a"/><use xlink:href="#b" x="39.996"/><text y="1.67" class="f">$</text><text x="2.004" y="1.67" class="g">portoser</text><text x="11.022" y="1.67" class="g">diagnose</text><text x="20.04" y="1.67" class="g">homeassistant</text><text x="34.068" y="1.67" class="g">raspi-</text></svg><svg x="4000"><use xlink:href="#a"/><use xlink:href="#b" x="40.996"/><use xlink:href="#4"/></svg><svg x="4100"><use xlink:href="#a"/><use xlink:href="#b" x="-.004" y="2.146"/><use xlink:href="#4"/></svg><svg x="4200"><use xlink:href="#a"/><use xlink:href="#b" x="-.004" y="17.343"/><use xlink:href="#4"/><use xlink:href="#5" y="2.171"/><use xlink:href="#6" y="6.513"/><use xlink:href="#7" y="8.684"/><use xlink:href="#8" y="13.026"/></svg><svg x="4300"><use xlink:href="#a"/><use xlink:href="#b" x="-.004" y="21.685"/><use xlink:href="#4"/><use xlink:href="#5" y="2.171"/><use xlink:href="#6" y="6.513"/><use xlink:href="#7" y="8.684"/><use xlink:href="#8" y="13.026"/><use xlink:href="#9" y="17.368"/></svg><svg x="4400"><use xlink:href="#a"/><use xlink:href="#b" x="-.004" y="23.856"/><use xlink:href="#4"/><use xlink:href="#5" y="2.171"/><use xlink:href="#6" y="6.513"/><use xlink:href="#7" y="8.684"/><use xlink:href="#8" y="13.026"/><use xlink:href="#9" y="17.368"/><use xlink:href="#10" y="21.71"/></svg><svg x="4500"><use xlink:href="#a"/><use xlink:href="#b" x="-.004" y="26.027"/><use xlink:href="#4"/><use xlink:href="#5" y="2.171"/><use xlink:href="#6" y="6.513"/><use xlink:href="#7" y="8.684"/><use xlink:href="#8" y="13.026"/><use xlink:href="#9" y="17.368"/><use xlink:href="#10" y="21.71"/><use xlink:href="#11" y="23.881"/></svg><svg x="4600"><use xlink:href="#a"/><use xlink:href="#b" x="-.004" y="28.198"/><use xlink:href="#4"/><use xlink:href="#5" y="2.171"/><use xlink:href="#6" y="6.513"/><use xlink:href="#7" y="8.684"/><use xlink:href="#8" y="13.026"/><use xlink:href="#9" y="17.368"/><use xlink:href="#10" y="21.71"/><use xlink:href="#11" y="23.881"/><use xlink:href="#12" y="26.052"/></svg><svg x="4700"><use xlink:href="#a"/><use xlink:href="#b" x="-.004" y="30.369"/><use xlink:href="#4"/><use xlink:href="#5" y="2.171"/><use xlink:href="#6" y="6.513"/><use xlink:href="#7" y="8.684"/><use xlink:href="#8" y="13.026"/><use xlink:href="#9" y="17.368"/><use xlink:href="#10" y="21.71"/><use xlink:href="#11" y="23.881"/><use xlink:href="#12" y="26.052"/><use xlink:href="#13" y="28.223"/></svg><svg x="4800"><use xlink:href="#a"/><use xlink:href="#b" x="-.004" y="32.54"/><use xlink:href="#4"/><use xlink:href="#5" y="2.171"/><use xlink:href="#6" y="6.513"/><use xlink:href="#7" y="8.684"/><use xlink:href="#8" y="13.026"/><use xlink:href="#9" y="17.368"/><use xlink:href="#10" y="21.71"/><use xlink:href="#11" y="23.881"/><use xlink:href="#12" y="26.052"/><use xlink:href="#13" y="28.223"/><use xlink:href="#14" y="30.394"/></svg><svg x="4900"><use xlink:href="#a"/><use xlink:href="#b" x="-.004" y="34.711"/><use xlink:href="#4"/><use xlink:href="#5" y="2.171"/><use xlink:href="#6" y="6.513"/><use xlink:href="#7" y="8.684"/><use xlink:href="#8" y="13.026"/><use xlink:href="#9" y="17.368"/><use xlink:href="#10" y="21.71"/><use xlink:href="#11" y="23.881"/><use xlink:href="#12" y="26.052"/><use xlink:href="#13" y="28.223"/><use xlink:href="#14" y="30.394"/><use xlink:href="#15" y="32.565"/></svg><svg x="5000"><use xlink:href="#a"/><use xlink:href="#b" x="-.004" y="36.882"/><use xlink:href="#4"/><use xlink:href="#5" y="2.171"/><use xlink:href="#6" y="6.513"/><use xlink:href="#7" y="8.684"/><use xlink:href="#8" y="13.026"/><use xlink:href="#9" y="17.368"/><use xlink:href="#10" y="21.71"/><use xlink:href="#11" y="23.881"/><use xlink:href="#12" y="26.052"/><use xlink:href="#13" y="28.223"/><use xlink:href="#14" y="30.394"/><use xlink:href="#15" y="32.565"/></svg><svg x="5100"><use xlink:href="#a"/><use xlink:href="#b" x="-.004" y="39.053"/><use xlink:href="#4"/><use xlink:href="#5" y="2.171"/><use xlink:href="#6" y="6.513"/><use xlink:href="#7" y="8.684"/><use xlink:href="#8" y="13.026"/><use xlink:href="#9" y="17.368"/><use xlink:href="#10" y="21.71"/><use xlink:href="#11" y="23.881"/><use xlink:href="#12" y="26.052"/><use xlink:href="#13" y="28.223"/><use xlink:href="#14" y="30.394"/><use xlink:href="#15" y="32.565"/><use xlink:href="#16" y="36.907"/></svg><svg x="5200"><use xlink:href="#a"/><use xlink:href="#b" x="-.004" y="41.224"/><use xlink:href="#4"/><use xlink:href="#5" y="2.171"/><use xlink:href="#6" y="6.513"/><use xlink:href="#7" y="8.684"/><use xlink:href="#8" y="13.026"/><use xlink:href="#9" y="17.368"/><use xlink:href="#10" y="21.71"/><use xlink:href="#11" y="23.881"/><use xlink:href="#12" y="26.052"/><use xlink:href="#13" y="28.223"/><use xlink:href="#14" y="30.394"/><use xlink:href="#15" y="32.565"/><use xlink:href="#16" y="36.907"/></svg><svg x="5300"><use xlink:href="#a"/><use xlink:href="#b" x="-.004" y="45.566"/><use xlink:href="#4"/><use xlink:href="#5" y="2.171"/><use xlink:href="#6" y="6.513"/><use xlink:href="#7" y="8.684"/><use xlink:href="#8" y="13.026"/><use xlink:href="#9" y="17.368"/><use xlink:href="#10" y="21.71"/><use xlink:href="#11" y="23.881"/><use xlink:href="#12" y="26.052"/><use xlink:href="#13" y="28.223"/><use xlink:href="#14" y="30.394"/><use xlink:href="#15" y="32.565"/><use xlink:href="#16" y="36.907"/><use xlink:href="#8" y="41.249"/></svg><svg x="5400"><use xlink:href="#a"/><use xlink:href="#b" x="-.004" y="49.908"/><use xlink:href="#4"/><use xlink:href="#5" y="2.171"/><use xlink:href="#6" y="6.513"/><use xlink:href="#7" y="8.684"/><use xlink:href="#8" y="13.026"/><use xlink:href="#9" y="17.368"/><use xlink:href="#10" y="21.71"/><use xlink:href="#11" y="23.881"/><use xlink:href="#12" y="26.052"/><use xlink:href="#13" y="28.223"/><use xlink:href="#14" y="30.394"/><use xlink:href="#15" y="32.565"/><use xlink:href="#16" y="36.907"/><use xlink:href="#8" y="41.249"/><use xlink:href="#17" y="45.591"/></svg><svg x="5500"><use xlink:href="#a"/><use xlink:href="#b" x="-.004" y="54.25"/><use xlink:href="#4"/><use xlink:href="#5" y="2.171"/><use xlink:href="#6" y="6.513"/><use xlink:href="#7" y="8.684"/><use xlink:href="#8" y="13.026"/><use xlink:href="#9" y="17.368"/><use xlink:href="#10" y="21.71"/><use xlink:href="#11" y="23.881"/><use xlink:href="#12" y="26.052"/><use xlink:href="#13" y="28.223"/><use xlink:href="#14" y="30.394"/><use xlink:href="#15" y="32.565"/><use xlink:href="#16" y="36.907"/><use xlink:href="#8" y="41.249"/><use xlink:href="#17" y="45.591"/><use xlink:href="#18" y="49.933"/></svg><svg x="5600"><use xlink:href="#a"/><use xlink:href="#b" x="-.004" y="58.592"/><use xlink:href="#4"/><use xlink:href="#5" y="2.171"/><use xlink:href="#6" y="6.513"/><use xlink:href="#7" y="8.684"/><use xlink:href="#8" y="13.026"/><use xlink:href="#9" y="17.368"/><use xlink:href="#10" y="21.71"/><use xlink:href="#11" y="23.881"/><use xlink:href="#12" y="26.052"/><use xlink:href="#13" y="28.223"/><use xlink:href="#14" y="30.394"/><use xlink:href="#15" y="32.565"/><use xlink:href="#16" y="36.907"/><use xlink:href="#8" y="41.249"/><use xlink:href="#17" y="45.591"/><use xlink:href="#18" y="49.933"/><use xlink:href="#19" y="56.446"/></svg><svg x="5700"><use xlink:href="#a"/><use xlink:href="#b" x="-.004" y="62.934"/><use xlink:href="#4"/><use xlink:href="#5" y="2.171"/><use xlink:href="#6" y="6.513"/><use xlink:href="#7" y="8.684"/><use xlink:href="#8" y="13.026"/><use xlink:href="#9" y="17.368"/><use xlink:href="#10" y="21.71"/><use xlink:href="#11" y="23.881"/><use xlink:href="#12" y="26.052"/><use xlink:href="#13" y="28.223"/><use xlink:href="#14" y="30.394"/><use xlink:href="#15" y="32.565"/><use xlink:href="#16" y="36.907"/><use xlink:href="#8" y="41.249"/><use xlink:href="#17" y="45.591"/><use xlink:href="#18" y="49.933"/><use xlink:href="#19" y="56.446"/><use xlink:href="#20" y="60.788"/></svg><svg x="5800"><use xlink:href="#a"/><use xlink:href="#b" x="-.004" y="65.105"/><use xlink:href="#4"/><use xlink:href="#5" y="2.171"/><use xlink:href="#6" y="6.513"/><use xlink:href="#7" y="8.684"/><use xlink:href="#8" y="13.026"/><use xlink:href="#9" y="17.368"/><use xlink:href="#10" y="21.71"/><use xlink:href="#11" y="23.881"/><use xlink:href="#12" y="26.052"/><use xlink:href="#13" y="28.223"/><use xlink:href="#14" y="30.394"/><use xlink:href="#15" y="32.565"/><use xlink:href="#16" y="36.907"/><use xlink:href="#8" y="41.249"/><use xlink:href="#17" y="45.591"/><use xlink:href="#18" y="49.933"/><use xlink:href="#19" y="56.446"/><use xlink:href="#20" y="60.788"/><use xlink:href="#21" y="62.959"/></svg><svg x="5900"><use xlink:href="#a"/><use xlink:href="#b" x="-.004" y="65.105"/><use xlink:href="#6"/><use xlink:href="#7" y="2.171"/><use xlink:href="#8" y="6.513"/><use xlink:href="#9" y="10.855"/><use xlink:href="#10" y="15.197"/><use xlink:href="#11" y="17.368"/><use xlink:href="#12" y="19.539"/><use xlink:href="#13" y="21.71"/><use xlink:href="#14" y="23.881"/><use xlink:href="#15" y="26.052"/><use xlink:href="#16" y="30.394"/><use xlink:href="#8" y="34.736"/><use xlink:href="#17" y="39.078"/><use xlink:href="#18" y="43.42"/><use xlink:href="#19" y="49.933"/><use xlink:href="#20" y="54.275"/><use xlink:href="#21" y="56.446"/><use xlink:href="#22" y="58.617"/><use xlink:href="#23" y="60.788"/></svg><svg x="6000"><use xlink:href="#a"/><use xlink:href="#b" x="-.004" y="65.105"/><use xlink:href="#7"/><use xlink:href="#8" y="4.342"/><use xlink:href="#9" y="8.684"/><use xlink:href="#10" y="13.026"/><use xlink:href="#11" y="15.197"/><use xlink:href="#12" y="17.368"/><use xlink:href="#13" y="19.539"/><use xlink:href="#14" y="21.71"/><use xlink:href="#15" y="23.881"/><use xlink:href="#16" y="28.223"/><use xlink:href="#8" y="32.565"/><use xlink:href="#17" y="36.907"/><use xlink:href="#18" y="41.249"/><use xlink:href="#19" y="47.762"/><use xlink:href="#20" y="52.104"/><use xlink:href="#21" y="54.275"/><use xlink:href="#22" y="56.446"/><use xlink:href="#23" y="58.617"/><use xlink:href="#24" y="62.959"/></svg><svg x="6100"><use xlink:href="#a"/><use xlink:href="#b" x="-.004" y="65.105"/><use xlink:href="#9" y="2.171"/><use xlink:href="#10" y="6.513"/><use xlink:href="#11" y="8.684"/><use xlink:href="#12" y="10.855"/><use xlink:href="#13" y="13.026"/><use xlink:href="#14" y="15.197"/><use xlink:href="#15" y="17.368"/><use xlink:href="#16" y="21.71"/><use xlink:href="#8" y="26.052"/><use xlink:href="#17" y="30.394"/><use xlink:href="#18" y="34.736"/><use xlink:href="#19" y="41.249"/><use xlink:href="#20" y="45.591"/><use xlink:href="#21" y="47.762"/><use xlink:href="#22" y="49.933"/><use xlink:href="#23" y="52.104"/><use xlink:href="#24" y="56.446"/><use xlink:href="#8" y="60.788"/></svg><svg x="6200"><use xlink:href="#a"/><use xlink:href="#b" x="-.004" y="65.105"/><use xlink:href="#9"/><use xlink:href="#10" y="4.342"/><use xlink:href="#11" y="6.513"/><use xlink:href="#12" y="8.684"/><use xlink:href="#13" y="10.855"/><use xlink:href="#14" y="13.026"/><use xlink:href="#15" y="15.197"/><use xlink:href="#16" y="19.539"/><use xlink:href="#8" y="23.881"/><use xlink:href="#17" y="28.223"/><use xlink:href="#18" y="32.565"/><use xlink:href="#19" y="39.078"/><use xlink:href="#20" y="43.42"/><use xlink:href="#21" y="45.591"/><use xlink:href="#22" y="47.762"/><use xlink:href="#23" y="49.933"/><use xlink:href="#24" y="54.275"/><use xlink:href="#8" y="58.617"/></svg><svg x="6300"><use xlink:href="#a"/><use xlink:href="#b" x="-.004" y="65.105"/><use xlink:href="#13"/><use xlink:href="#14" y="2.171"/><use xlink:href="#15" y="4.342"/><use xlink:href="#16" y="8.684"/><use xlink:href="#8" y="13.026"/><use xlink:href="#17" y="17.368"/><use xlink:href="#18" y="21.71"/><use xlink:href="#19" y="28.223"/><use xlink:href="#20" y="32.565"/><use xlink:href="#21" y="34.736"/><use xlink:href="#22" y="36.907"/><use xlink:href="#23" y="39.078"/><use xlink:href="#24" y="43.42"/><use xlink:href="#8" y="47.762"/><use xlink:href="#25" y="54.275"/><use xlink:href="#26" y="56.446"/><use xlink:href="#8" y="60.788"/></svg><svg x="6400"><use xlink:href="#a"/><use xlink:href="#b" x="-.004" y="65.105"/><use xlink:href="#15"/><use xlink:href="#16" y="4.342"/><use xlink:href="#8" y="8.684"/><use xlink:href="#17" y="13.026"/><use xlink:href="#18" y="17.368"/><use xlink:href="#19" y="23.881"/><use xlink:href="#20" y="28.223"/><use xlink:href="#21" y="30.394"/><use xlink:href="#22" y="32.565"/><use xlink:href="#23" y="34.736"/><use xlink:href="#24" y="39.078"/><use xlink:href="#8" y="43.42"/><use xlink:href="#25" y="49.933"/><use xlink:href="#26" y="52.104"/><use xlink:href="#8" y="56.446"/><use xlink:href="#27" y="60.788"/></svg><svg x="6500"><use xlink:href="#a"/><use xlink:href="#b" x="-.004" y="65.105"/><use xlink:href="#18" y="2.171"/><use xlink:href="#19" y="8.684"/><use xlink:href="#20" y="13.026"/><use xlink:href="#21" y="15.197"/><use xlink:href="#22" y="17.368"/><use xlink:href="#23" y="19.539"/><use xlink:href="#24" y="23.881"/><use xlink:href="#8" y="28.223"/><use xlink:href="#25" y="34.736"/><use xlink:href="#26" y="36.907"/><use xlink:href="#8" y="41.249"/><use xlink:href="#27" y="45.591"/><use xlink:href="#28" y="49.933"/><use xlink:href="#29" y="52.104"/><use xlink:href="#30" y="54.275"/><use xlink:href="#31" y="56.446"/><use xlink:href="#32" y="60.788"/><use xlink:href="#33" y="62.959"/></svg><svg x="6600"><use xlink:href="#a"/><use xlink:href="#b" x="-.004" y="65.105"/><use xlink:href="#18"/><use xlink:href="#19" y="6.513"/><use xlink:href="#20" y="10.855"/><use xlink:href="#21" y="13.026"/><use xlink:href="#22" y="15.197"/><use xlink:href="#23" y="17.368"/><use xlink:href="#24" y="21.71"/><use xlink:href="#8" y="26.052"/><use xlink:href="#25" y="32.565"/><use xlink:href="#26" y="34.736"/><use xlink:href="#8" y="39.078"/><use xlink:href="#27" y="43.42"/><use xlink:href="#28" y="47.762"/><use xlink:href="#29" y="49.933"/><use xlink:href="#30" y="52.104"/><use xlink:href="#31" y="54.275"/><use xlink:href="#32" y="58.617"/><use xlink:href="#33" y="60.788"/></svg><svg x="6700"><use xlink:href="#a"/><use xlink:href="#b" x="-.004" y="65.105"/><use xlink:href="#19" y="4.342"/><use xlink:href="#20" y="8.684"/><use xlink:href="#21" y="10.855"/><use xlink:href="#22" y="13.026"/><use xlink:href="#23" y="15.197"/><use xlink:href="#24" y="19.539"/><use xlink:href="#8" y="23.881"/><use xlink:href="#25" y="30.394"/><use xlink:href="#26" y="32.565"/><use xlink:href="#8" y="36.907"/><use xlink:href="#27" y="41.249"/><use xlink:href="#28" y="45.591"/><use xlink:href="#29" y="47.762"/><use xlink:href="#30" y="49.933"/><use xlink:href="#31" y="52.104"/><use xlink:href="#32" y="56.446"/><use xlink:href="#33" y="58.617"/><text y="64.629" class="g">Full</text><text x="5.01" y="64.629" class="g">diagnostic</text><text x="16.032" y="64.629" class="g">report:</text><text x="24.048" y="64.629" class="g">/root/.portoser/diagnostics/homeassistant_raspi-4_1778248608.md</text></svg></svg></g></g></svg></svg>