<svg xmlns="http://www.w3.org/2000/svg" xmlns:xlink="http://www.w3.org/1999/xlink" width="1040" height="581.04"><rect width="1040" height="581.04" rx="5" ry="5" class="a"/><svg y="0%" x="0%"><circle cx="20" cy="20" r="6" fill="#ff5f58"/><circle cx="40" cy="20" r="6" fill="#ffbd2e"/><circle cx="60" cy="20" r="6" fill="#18c132"/></svg><svg height="521.04" viewBox="0 0 100 52.104" width="1000" x="15" xmlns="http://www.w3.org/2000/svg" xmlns:xlink="http://www.w3.org/1999/xlink" y="50"><style>@keyframes j{0%{transform:translateX(0)}.4%{transform:translateX(-200px)}.7%{transform:translateX(-300px)}1%{transform:translateX(-400px)}1.3%{transform:translateX(-500px)}1.5%{transform:translateX(-600px)}1.8%{transform:translateX(-700px)}2%{transform:translateX(-800px)}2.3%{transform:translateX(-900px)}2.6%{transform:translateX(-1000px)}2.8%{transform:translateX(-1100px)}3.1%{transform:translateX(-1200px)}3.4%{transform:translateX(-1300px)}3.6%{transform:translateX(-1400px)}3.9%{transform:translateX(-1500px)}4.2%{transform:translateX(-1600px)}4.5%{transform:translateX(-1700px)}4.8%{transform:translateX(-1800px)}5%{transform:translateX(-1900px)}5.3%{transform:translateX(-2000px)}5.6%{transform:translateX(-2100px)}5.9%{transform:translateX(-2200px)}6.1%{transform:translateX(-2300px)}6.4%{transform:translateX(-2400px)}6.7%{transform:translateX(-2500px)}7%{transform:translateX(-2600px)}7.3%{transform:translateX(-2700px)}7.5%{transform:translateX(-2800px)}7.8%{transform:translateX(-2900px)}8.1%{transform:translateX(-3000px)}8.4%{transform:translateX(-3100px)}8.7%{transform:translateX(-3200px)}8.9%{transform:translateX(-3300px)}9.2%{transform:translateX(-3400px)}9.5%{transform:translateX(-3500px)}9.8%{transform:translateX(-3600px)}12%{transform:translateX(-3700px)}12.1%{transform:translateX(-3800px)}19%{transform:translateX(-3900px)}32.8%{transform:translateX(-4000px)}50.1%{transform:translateX(-4100px)}50.2%{transform:translateX(-4200px)}57.4%{transform:translateX(-4300px)}68.7%{transform:translateX(-4400px)}85.8%{transform:translateX(-4600px)}91.4%{transform:translateX(-4700px)}to{transform:translateX(-4800px)}}.a{fill:rgb(255,255,255,237)}.f,.g{white-space:pre}.f{fill:#6caa71;font-weight:700}.g{fill:#2d3840}</style><g font-family="Monaco,Consolas,Menlo,'Bitstream Vera Sans Mono','Powerline Symbols',monospace" font-size="1.67"><defs><symbol id="1"><text y="1.67" class="f">$</text><text x="2.004" y="1.67" class="g">watch</text></symbol><symbol id="2"><text y="1.67" class="f">$</text><text x="2.004" y="1.67" class="g">watch</text><text x="8.016" y="1.67" class="g">-n</text></symbol><symbol id="3"><text y="1.67" class="f">$</text><text x="2.004" y="1.67" class="g">watch</text><text x="8.016" y="1.67" class="g">-n</text><text x="11.022" y="1.67" class="g">5</text></symbol><symbol id="4"><text y="1.67" class="f">$</text><text x="2.004" y="1.67" class="g">watch</text><text x="8.016" y="1.67" class="g">-n</text><text x="11.022" y="1.67" class="g">5</text><text x="13.026" y="1.67" class="g">portoser</text></symbol><symbol id="5"><text y="1.67" class="f">$</text><text x="2.004" y="1.67" class="g">watch</text><text x="8.016" y="1.67" class="g">-n</text><text x="11.022" y="1.67" class="g">5</text><text x="13.026" y="1.67" class="g">portoser</text><text x="22.044" y="1.67" class="g">cluster</text></symbol><symbol id="6"><text y="1.67" class="f">$</text><text x="2.004" y="1.67" class="g">watch</text><text x="8.016" y="1.67" class="g">-n</text><text x="11.022" y="1.67" class="g">5</text><text x="13.026" y="1.67" class="g">portoser</text><text x="22.044" y="1.67" class="g">cluster</text><text x="30.06" y="1.67" class="g">status</text></symbol><symbol id="7"><text y="1.67" class="g">Every</text><text x="6.012" y="1.67" class="g">5.0s:</text><text x="12.024" y="1.67" class="g">portoser</text><text x="21.042" y="1.67" class="g">cluster</text><text x="29.058" y="1.67" class="g">status</text><text x="58.116" y="1.67" class="g">2026-05-08</text><text x="69.138" y="1.67" class="g">15:58:41</text></symbol><symbol id="8"><text y="1.67" class="g">Getting</text><text x="8.016" y="1.67" class="g">cluster</text><text x="16.032" y="1.67" class="g">status...</text></symbol><symbol id="9"><text y="1.67" class="g">Cluster</text><text x="8.016" y="1.67" class="g">Health</text><text x="15.03" y="1.67" class="g">Summary</text></symbol><symbol id="10"><text y="1.67" class="g">======================</text></symbol><symbol id="11"><text y="1.67" class="g">Healthy:</text><text x="11.022" y="1.67" class="g">12</text></symbol><symbol id="12"><text y="1.67" class="g">Degraded:</text><text x="11.022" y="1.67" class="g">0</text></symbol><symbol id="13"><text y="1.67" class="g">Down:</text><text x="11.022" y="1.67" class="g">2</text></symbol><symbol id="14"><text y="1.67" class="g">Skipped:</text><text x="11.022" y="1.67" class="g">3</text></symbol><symbol id="15"><text y="1.67" class="g">Total:</text><text x="11.022" y="1.67" class="g">17</text></symbol><symbol id="16"><text y="1.67" class="g">Every</text><text x="6.012" y="1.67" class="g">5.0s:</text><text x="12.024" y="1.67" class="g">portoser</text><text x="21.042" y="1.67" class="g">cluster</text><text x="29.058" y="1.67" class="g">status</text><text x="58.116" y="1.67" class="g">2026-05-08</text><text x="69.138" y="1.67" class="g">15:58:46</text></symbol><symbol id="17"><text y="1.67" class="g">Every</text><text x="6.012" y="1.67" class="g">5.0s:</text><text x="12.024" y="1.67" class="g">portoser</text><text x="21.042" y="1.67" class="g">cluster</text><text x="29.058" y="1.67" class="g">status</text><text x="58.116" y="1.67" class="g">2026-05-08</text><text x="69.138" y="1.67" class="g">15:58:50</text></symbol><symbol id="a"><path fill="transparent" d="M0 0h100v25H0z"/></symbol><symbol id="b"><path fill="#7f7f7f" d="M0 0h1.102v2.171H0z"/></symbol></defs><path class="a" d="M0 0h100v52.104H0z"/><g style="animation-duration:11.99851s;animation-iteration-count:infinite;animation-name:j;animation-timing-function:steps(1,end)"><svg width="4900"><svg><use xlink:href="#a"/><use xlink:href="#b" x="-.004"/></svg><svg x="100"><use xlink:href="#a"/><use xlink:href="#b" x="-.004"/></svg><svg x="200"><use xlink:href="#a"/><use xlink:href="#b" x="2.996"/><text y="1.67" class="f">$</text><text x="2.004" y="1.67" class="g">w</text></svg><svg x="300"><use xlink:href="#a"/><use xlink:href="#b" x="3.996"/><text y="1.67" class="f">$</text><text x="2.004" y="1.67" class="g">wa</text></svg><svg x="400"><use xlink:href="#a"/><use xlink:href="#b" x="4.996"/><text y="1.67" class="f">$</text><text x="2.004" y="1.67" class="g">wat</text></svg><svg x="500"><use xlink:href="#a"/><use xlink:href="#b" x="5.996"/><text y="1.67" class="f">$</text><text x="2.004" y="1.67" class="g">watc</text></svg><svg x="600"><use xlink:href="#a"/><use xlink:href="#b" x="6.996"/><use xlink:href="#1"/></svg><svg x="700"><use xlink:href="#a"/><use xlink:href="#b" x="7.996"/><use xlink:href="#1"/></svg><svg x="800"><use xlink:href="#a"/><use xlink:href="#b" x="8.996"/><text y="1.67" class="f">$</text><text x="2.004" y="1.67" class="g">watch</text><text x="8.016" y="1.67" class="g">-</text></svg><svg x="900"><use xlink:href="#a"/><use xlink:href="#b" x="9.996"/><use xlink:href="#2"/></svg><svg x="1000"><use xlink:href="#a"/><use xlink:href="#b" x="10.996"/><use xlink:href="#2"/></svg><svg x="1100"><use xlink:href="#a"/><use xlink:href="#b" x="11.996"/><use xlink:href="#3"/></svg><svg x="1200"><use xlink:href="#a"/><use xlink:href="#b" x="12.996"/><use xlink:href="#3"/></svg><svg x="1300"><use xlink:href="#a"/><use xlink:href="#b" x="13.996"/><text y="1.67" class="f">$</text><text x="2.004" y="1.67" class="g">watch</text><text x="8.016" y="1.67" class="g">-n</text><text x="11.022" y="1.67" class="g">5</text><text x="13.026" y="1.67" class="g">p</text></svg><svg x="1400"><use xlink:href="#a"/><use xlink:href="#b" x="14.996"/><text y="1.67" class="f">$</text><text x="2.004" y="1.67" class="g">watch</text><text x="8.016" y="1.67" class="g">-n</text><text x="11.022" y="1.67" class="g">5</text><text x="13.026" y="1.67" class="g">po</text></svg><svg x="1500"><use xlink:href="#a"/><use xlink:href="#b" x="15.996"/><text y="1.67" class="f">$</text><text x="2.004" y="1.67" class="g">watch</text><text x="8.016" y="1.67" class="g">-n</text><text x="11.022" y="1.67" class="g">5</text><text x="13.026" y="1.67" class="g">por</text></svg><svg x="1600"><use xlink:href="#a"/><use xlink:href="#b" x="16.996"/><text y="1.67" class="f">$</text><text x="2.004" y="1.67" class="g">watch</text><text x="8.016" y="1.67" class="g">-n</text><text x="11.022" y="1.67" class="g">5</text><text x="13.026" y="1.67" class="g">port</text></svg><svg x="1700"><use xlink:href="#a"/><use xlink:href="#b" x="17.996"/><text y="1.67" class="f">$</text><text x="2.004" y="1.67" class="g">watch</text><text x="8.016" y="1.67" class="g">-n</text><text x="11.022" y="1.67" class="g">5</text><text x="13.026" y="1.67" class="g">porto</text></svg><svg x="1800"><use xlink:href="#a"/><use xlink:href="#b" x="18.996"/><text y="1.67" class="f">$</text><text x="2.004" y="1.67" class="g">watch</text><text x="8.016" y="1.67" class="g">-n</text><text x="11.022" y="1.67" class="g">5</text><text x="13.026" y="1.67" class="g">portos</text></svg><svg x="1900"><use xlink:href="#a"/><use xlink:href="#b" x="19.996"/><text y="1.67" class="f">$</text><text x="2.004" y="1.67" class="g">watch</text><text x="8.016" y="1.67" class="g">-n</text><text x="11.022" y="1.67" class="g">5</text><text x="13.026" y="1.67" class="g">portose</text></svg><svg x="2000"><use xlink:href="#a"/><use xlink:href="#b" x="20.996"/><use xlink:href="#4"/></svg><svg x="2100"><use xlink:href="#a"/><use xlink:href="#b" x="21.996"/><use xlink:href="#4"/></svg><svg x="2200"><use xlink:href="#a"/><use xlink:href="#b" x="22.996"/><text y="1.67" class="f">$</text><text x="2.004" y="1.67" class="g">watch</text><text x="8.016" y="1.67" class="g">-n</text><text x="11.022" y="1.67" class="g">5</text><text x="13.026" y="1.67" class="g">portoser</text><text x="22.044" y="1.67" class="g">c</text></svg><svg x="2300"><use xlink:href="#a"/><use xlink:href="#b" x="23.996"/><text y="1.67" class="f">$</text><text x="2.004" y="1.67" class="g">watch</text><text x="8.016" y="1.67" class="g">-n</text><text x="11.022" y="1.67" class="g">5</text><text x="13.026" y="1.67" class="g">portoser</text><text x="22.044" y="1.67" class="g">cl</text></svg><svg x="2400"><use xlink:href="#a"/><use xlink:href="#b" x="24.996"/><text y="1.67" class="f">$</text><text x="2.004" y="1.67" class="g">watch</text><text x="8.016" y="1.67" class="g">-n</text><text x="11.022" y="1.67" class="g">5</text><text x="13.026" y="1.67" class="g">portoser</text><text x="22.044" y="1.67" class="g">clu</text></svg><svg x="2500"><use xlink:href="#a"/><use xlink:href="#b" x="25.996"/><text y="1.67" class="f">$</text><text x="2.004" y="1.67" class="g">watch</text><text x="8.016" y="1.67" class="g">-n</text><text x="11.022" y="1.67" class="g">5</text><text x="13.026" y="1.67" class="g">portoser</text><text x="22.044" y="1.67" class="g">clus</text></svg><svg x="2600"><use xlink:href="#a"/><use xlink:href="#b" x="26.996"/><text y="1.67" class="f">$</text><text x="2.004" y="1.67" class="g">watch</text><text x="8.016" y="1.67" class="g">-n</text><text x="11.022" y="1.67" class="g">5</text><text x="13.026" y="1.67" class="g">portoser</text><text x="22.044" y="1.67" class="g">clust</text></svg><svg x="2700"><use xlink:href="#a"/><use xlink:href="#b" x="27.996"/><text y="1.67" class="f">$</text><text x="2.004" y="1.67" class="g">watch</text><text x="8.016" y="1.67" class="g">-n</text><text x="11.022" y="1.67" class="g">5</text><text x="13.026" y="1.67" class="g">portoser</text><text x="22.044" y="1.67" class="g">cluste</text></svg><svg x="2800"><use xlink:href="#a"/><use xlink:href="#b" x="28.996"/><use xlink:href="#5"/></svg><svg x="2900"><use xlink:href="#a"/><use xlink:href="#b" x="29.996"/><use xlink:href="#5"/></svg><svg x="3000"><use xlink:href="#a"/><use xlink:href="#b" x="30.996"/><text y="1.67" class="f">$</text><text x="2.004" y="1.67" class="g">watch</text><text x="8.016" y="1.67" class="g">-n</text><text x="11.022" y="1.67" class="g">5</text><text x="13.026" y="1.67" class="g">portoser</text><text x="22.044" y="1.67" class="g">cluster</text><text x="30.06" y="1.67" class="g">s</text></svg><svg x="3100"><use xlink:href="#a"/><use xlink:href="#b" x="31.996"/><text y="1.67" class="f">$</text><text x="2.004" y="1.67" class="g">watch</text><text x="8.016" y="1.67" class="g">-n</text><text x="11.022" y="1.67" class="g">5</text><text x="13.026" y="1.67" class="g">portoser</text><text x="22.044" y="1.67" class="g">cluster</text><text x="30.06" y="1.67" class="g">st</text></svg><svg x="3200"><use xlink:href="#a"/><use xlink:href="#b" x="32.996"/><text y="1.67" class="f">$</text><text x="2.004" y="1.67" class="g">watch</text><text x="8.016" y="1.67" class="g">-n</text><text x="11.022" y="1.67" class="g">5</text><text x="13.026" y="1.67" class="g">portoser</text><text x="22.044" y="1.67" class="g">cluster</text><text x="30.06" y="1.67" class="g">sta</text></svg><svg x="3300"><use xlink:href="#a"/><use xlink:href="#b" x="33.996"/><text y="1.67" class="f">$</text><text x="2.004" y="1.67" class="g">watch</text><text x="8.016" y="1.67" class="g">-n</text><text x="11.022" y="1.67" class="g">5</text><text x="13.026" y="1.67" class="g">portoser</text><text x="22.044" y="1.67" class="g">cluster</text><text x="30.06" y="1.67" class="g">stat</text></svg><svg x="3400"><use xlink:href="#a"/><use xlink:href="#b" x="34.996"/><text y="1.67" class="f">$</text><text x="2.004" y="1.67" class="g">watch</text><text x="8.016" y="1.67" class="g">-n</text><text x="11.022" y="1.67" class="g">5</text><text x="13.026" y="1.67" class="g">portoser</text><text x="22.044" y="1.67" class="g">cluster</text><text x="30.06" y="1.67" class="g">statu</text></svg><svg x="3500"><use xlink:href="#a"/><use xlink:href="#b" x="35.996"/><use xlink:href="#6"/></svg><svg x="3600"><use xlink:href="#a"/><use xlink:href="#b" x="-.004" y="2.146"/><use xlink:href="#6"/></svg><svg x="3700"><use xlink:href="#a"/><use xlink:href="#b" x="-.004"/></svg><svg x="3800"><use xlink:href="#a"/><use xlink:href="#b" x="-.004" y="4.317"/><use xlink:href="#7"/></svg><svg x="3900"><use xlink:href="#a"/><use xlink:href="#b" x="-.004" y="8.659"/><use xlink:href="#7"/><use xlink:href="#8" y="4.342"/></svg><svg x="4000"><use xlink:href="#a"/><use xlink:href="#b" x="-.004" y="26.027"/><use xlink:href="#7"/><use xlink:href="#8" y="4.342"/><use xlink:href="#9" y="8.684"/><use xlink:href="#10" y="10.855"/><use xlink:href="#11" y="15.197"/><use xlink:href="#12" y="17.368"/><use xlink:href="#13" y="19.539"/><use xlink:href="#14" y="21.71"/><use xlink:href="#15" y="23.881"/></svg><svg x="4100"><use xlink:href="#a"/><use xlink:href="#b" x="-.004"/></svg><svg x="4200"><use xlink:href="#a"/><use xlink:href="#b" x="-.004" y="4.317"/><use xlink:href="#16"/></svg><svg x="4300"><use xlink:href="#a"/><use xlink:href="#b" x="-.004" y="8.659"/><use xlink:href="#16"/><use xlink:href="#8" y="4.342"/></svg><svg x="4400"><use xlink:href="#a"/><use xlink:href="#b" x="-.004" y="26.027"/><use xlink:href="#16"/><use xlink:href="#8" y="4.342"/><use xlink:href="#9" y="8.684"/><use xlink:href="#10" y="10.855"/><use xlink:href="#11" y="15.197"/><use xlink:href="#12" y="17.368"/><use xlink:href="#13" y="19.539"/><use xlink:href="#14" y="21.71"/><use xlink:href="#15" y="23.881"/></svg><svg x="4500"><use xlink:href="#a"/><use xlink:href="#b" x="-.004"/></svg><svg x="4600"><use xlink:href="#a"/><use xlink:href="#b" x="-.004" y="4.317"/><use xlink:href="#17"/></svg><svg x="4700"><use xlink:href="#a"/><use xlink:href="#b" x="-.004" y="8.659"/><use xlink:href="#17"/><use xlink:href="#8" y="4.342"/></svg><svg x="4800"><use xlink:href="#a"/><use xlink:href="#b" x="-.004" y="26.027"/><use xlink:href="#17"/><use xlink:href="#8" y="4.342"/><use xlink:href="#9" y="8.684"/><use xlink:href="#10" y="10.855"/><use xlink:href="#11" y="15.197"/><use xlink:href="#12" y="17.368"/><use xlink:href="#13" y="19.539"/><use xlink:href="#14" y="21.71"/><use xlink:href="#15" y="23.881"/></svg></svg></g></g></svg></svg>